<svg width="144" height="32" viewBox="0 0 144 32" fill="none" xmlns="http://www.w3.org/2000/svg">
<path d="M25.5 16H6M6 16L13.5 8.5M6 16L13.5 23.5" stroke="white" stroke-width="2" stroke-linecap="round" stroke-linejoin="round"/>
<path d="M61.0391 6.9375V24H57.5234V6.9375H61.0391ZM71.2578 6.9375L64.4961 15.3633L60.5938 19.5586L59.9609 16.2305L62.5977 12.6211L66.9453 6.9375H71.2578ZM67.2617 24L62.2344 16.1133L64.8359 13.9336L71.4219 24H67.2617ZM78.1016 24.2344C77.1172 24.2344 76.2344 24.0781 75.4531 23.7656C74.6719 23.4453 74.0078 23.0039 73.4609 22.4414C72.9219 21.8789 72.5078 21.2266 72.2188 20.4844C71.9297 19.7344 71.7852 18.9375 71.7852 18.0938V17.625C71.7852 16.6641 71.9219 15.7852 72.1953 14.9883C72.4688 14.1914 72.8594 13.5 73.3672 12.9141C73.8828 12.3281 74.5078 11.8789 75.2422 11.5664C75.9766 11.2461 76.8047 11.0859 77.7266 11.0859C78.625 11.0859 79.4219 11.2344 80.1172 11.5312C80.8125 11.8281 81.3945 12.25 81.8633 12.7969C82.3398 13.3438 82.6992 14 82.9414 14.7656C83.1836 15.5234 83.3047 16.3672 83.3047 17.2969V18.7031H73.2266V16.4531H79.9883V16.1953C79.9883 15.7266 79.9023 15.3086 79.7305 14.9414C79.5664 14.5664 79.3164 14.2695 78.9805 14.0508C78.6445 13.832 78.2148 13.7227 77.6914 13.7227C77.2461 13.7227 76.8633 13.8203 76.543 14.0156C76.2227 14.2109 75.9609 14.4844 75.7578 14.8359C75.5625 15.1875 75.4141 15.6016 75.3125 16.0781C75.2188 16.5469 75.1719 17.0625 75.1719 17.625V18.0938C75.1719 18.6016 75.2422 19.0703 75.3828 19.5C75.5312 19.9297 75.7383 20.3008 76.0039 20.6133C76.2773 20.9258 76.6055 21.168 76.9883 21.3398C77.3789 21.5117 77.8203 21.5977 78.3125 21.5977C78.9219 21.5977 79.4883 21.4805 80.0117 21.2461C80.543 21.0039 81 20.6406 81.3828 20.1562L83.0234 21.9375C82.7578 22.3203 82.3945 22.6875 81.9336 23.0391C81.4805 23.3906 80.9336 23.6797 80.293 23.9062C79.6523 24.125 78.9219 24.2344 78.1016 24.2344ZM88.6016 13.9453V24H85.2148V11.3203H88.3906L88.6016 13.9453ZM88.1328 17.2148H87.1953C87.1953 16.332 87.3008 15.5195 87.5117 14.7773C87.7305 14.0273 88.0469 13.3789 88.4609 12.832C88.8828 12.2773 89.4023 11.8477 90.0195 11.543C90.6367 11.2383 91.3516 11.0859 92.1641 11.0859C92.7266 11.0859 93.2422 11.1719 93.7109 11.3438C94.1797 11.5078 94.582 11.7695 94.918 12.1289C95.2617 12.4805 95.5273 12.9414 95.7148 13.5117C95.9023 14.0742 95.9961 14.75 95.9961 15.5391V24H92.6211V15.9141C92.6211 15.3359 92.543 14.8906 92.3867 14.5781C92.2305 14.2656 92.0078 14.0469 91.7188 13.9219C91.4375 13.7969 91.0977 13.7344 90.6992 13.7344C90.2617 13.7344 89.8789 13.8242 89.5508 14.0039C89.2305 14.1836 88.9648 14.4336 88.7539 14.7539C88.543 15.0664 88.3867 15.4336 88.2852 15.8555C88.1836 16.2773 88.1328 16.7305 88.1328 17.2148ZM95.6797 16.8281L94.4727 16.9805C94.4727 16.1523 94.5742 15.3828 94.7773 14.6719C94.9883 13.9609 95.2969 13.3359 95.7031 12.7969C96.1172 12.2578 96.6289 11.8398 97.2383 11.543C97.8477 11.2383 98.5508 11.0859 99.3477 11.0859C99.957 11.0859 100.512 11.1758 101.012 11.3555C101.512 11.5273 101.938 11.8047 102.289 12.1875C102.648 12.5625 102.922 13.0547 103.109 13.6641C103.305 14.2734 103.402 15.0195 103.402 15.9023V24H100.016V15.9023C100.016 15.3164 99.9375 14.8711 99.7812 14.5664C99.6328 14.2539 99.4141 14.0391 99.125 13.9219C98.8438 13.7969 98.5078 13.7344 98.1172 13.7344C97.7109 13.7344 97.3555 13.8164 97.0508 13.9805C96.7461 14.1367 96.4922 14.3555 96.2891 14.6367C96.0859 14.918 95.9336 15.2461 95.832 15.6211C95.7305 15.9883 95.6797 16.3906 95.6797 16.8281ZM106.016 6H109.391V21.0938L109.051 24H106.016V6ZM117.418 17.5312V17.7773C117.418 18.7227 117.316 19.5898 117.113 20.3789C116.918 21.168 116.613 21.8516 116.199 22.4297C115.785 23 115.27 23.4453 114.652 23.7656C114.043 24.0781 113.324 24.2344 112.496 24.2344C111.723 24.2344 111.051 24.0781 110.48 23.7656C109.918 23.4531 109.445 23.0117 109.062 22.4414C108.68 21.8711 108.371 21.2031 108.137 20.4375C107.902 19.6719 107.727 18.8359 107.609 17.9297V17.3906C107.727 16.4844 107.902 15.6484 108.137 14.8828C108.371 14.1172 108.68 13.4492 109.062 12.8789C109.445 12.3086 109.918 11.8672 110.48 11.5547C111.043 11.2422 111.707 11.0859 112.473 11.0859C113.309 11.0859 114.035 11.2461 114.652 11.5664C115.277 11.8789 115.793 12.3242 116.199 12.9023C116.613 13.4727 116.918 14.1523 117.113 14.9414C117.316 15.7227 117.418 16.5859 117.418 17.5312ZM114.043 17.7773V17.5312C114.043 17.0156 114.004 16.5312 113.926 16.0781C113.855 15.6172 113.73 15.2148 113.551 14.8711C113.371 14.5195 113.125 14.2422 112.812 14.0391C112.508 13.8359 112.113 13.7344 111.629 13.7344C111.168 13.7344 110.777 13.8125 110.457 13.9688C110.137 14.125 109.871 14.3438 109.66 14.625C109.457 14.9062 109.305 15.2422 109.203 15.6328C109.102 16.0156 109.039 16.4375 109.016 16.8984V18.4336C109.039 19.0508 109.141 19.5977 109.32 20.0742C109.508 20.543 109.789 20.9141 110.164 21.1875C110.547 21.4531 111.043 21.5859 111.652 21.5859C112.129 21.5859 112.523 21.4922 112.836 21.3047C113.148 21.1172 113.391 20.8516 113.562 20.5078C113.742 20.1641 113.867 19.7617 113.938 19.3008C114.008 18.832 114.043 18.3242 114.043 17.7773ZM126.359 21.1406V15.4922C126.359 15.0859 126.293 14.7383 126.16 14.4492C126.027 14.1523 125.82 13.9219 125.539 13.7578C125.266 13.5938 124.91 13.5117 124.473 13.5117C124.098 13.5117 123.773 13.5781 123.5 13.7109C123.227 13.8359 123.016 14.0195 122.867 14.2617C122.719 14.4961 122.645 14.7734 122.645 15.0938H119.27C119.27 14.5547 119.395 14.043 119.645 13.5586C119.895 13.0742 120.258 12.6484 120.734 12.2812C121.211 11.9062 121.777 11.6133 122.434 11.4023C123.098 11.1914 123.84 11.0859 124.66 11.0859C125.645 11.0859 126.52 11.25 127.285 11.5781C128.051 11.9062 128.652 12.3984 129.09 13.0547C129.535 13.7109 129.758 14.5312 129.758 15.5156V20.9414C129.758 21.6367 129.801 22.207 129.887 22.6523C129.973 23.0898 130.098 23.4727 130.262 23.8008V24H126.852C126.688 23.6562 126.562 23.2266 126.477 22.7109C126.398 22.1875 126.359 21.6641 126.359 21.1406ZM126.805 16.2773L126.828 18.1875H124.941C124.496 18.1875 124.109 18.2383 123.781 18.3398C123.453 18.4414 123.184 18.5859 122.973 18.7734C122.762 18.9531 122.605 19.1641 122.504 19.4062C122.41 19.6484 122.363 19.9141 122.363 20.2031C122.363 20.4922 122.43 20.7539 122.562 20.9883C122.695 21.2148 122.887 21.3945 123.137 21.5273C123.387 21.6523 123.68 21.7148 124.016 21.7148C124.523 21.7148 124.965 21.6133 125.34 21.4102C125.715 21.207 126.004 20.957 126.207 20.6602C126.418 20.3633 126.527 20.082 126.535 19.8164L127.426 21.2461C127.301 21.5664 127.129 21.8984 126.91 22.2422C126.699 22.5859 126.43 22.9102 126.102 23.2148C125.773 23.5117 125.379 23.7578 124.918 23.9531C124.457 24.1406 123.91 24.2344 123.277 24.2344C122.473 24.2344 121.742 24.0742 121.086 23.7539C120.438 23.4258 119.922 22.9766 119.539 22.4062C119.164 21.8281 118.977 21.1719 118.977 20.4375C118.977 19.7734 119.102 19.1836 119.352 18.668C119.602 18.1523 119.969 17.7188 120.453 17.3672C120.945 17.0078 121.559 16.7383 122.293 16.5586C123.027 16.3711 123.879 16.2773 124.848 16.2773H126.805ZM135.922 6V24H132.535V6H135.922ZM142.273 11.3203V24H138.887V11.3203H142.273ZM138.676 8.01562C138.676 7.52344 138.848 7.11719 139.191 6.79688C139.535 6.47656 139.996 6.31641 140.574 6.31641C141.145 6.31641 141.602 6.47656 141.945 6.79688C142.297 7.11719 142.473 7.52344 142.473 8.01562C142.473 8.50781 142.297 8.91406 141.945 9.23438C141.602 9.55469 141.145 9.71484 140.574 9.71484C139.996 9.71484 139.535 9.55469 139.191 9.23438C138.848 8.91406 138.676 8.50781 138.676 8.01562Z" fill="white"/>
</svg>
