<svg width="151" height="40" viewBox="0 0 151 40" fill="none" xmlns="http://www.w3.org/2000/svg">
<g filter="url(#filter0_d_12_58019)">
<path d="M29.5 16H10M10 16L17.5 8.5M10 16L17.5 23.5" stroke="#5A637A" stroke-width="2" stroke-linecap="round" stroke-linejoin="round"/>
<path d="M65.0391 6.9375V24H61.5234V6.9375H65.0391ZM75.2578 6.9375L68.4961 15.3633L64.5938 19.5586L63.9609 16.2305L66.5977 12.6211L70.9453 6.9375H75.2578ZM71.2617 24L66.2344 16.1133L68.8359 13.9336L75.4219 24H71.2617ZM82.1016 24.2344C81.1172 24.2344 80.2344 24.0781 79.4531 23.7656C78.6719 23.4453 78.0078 23.0039 77.4609 22.4414C76.9219 21.8789 76.5078 21.2266 76.2188 20.4844C75.9297 19.7344 75.7852 18.9375 75.7852 18.0938V17.625C75.7852 16.6641 75.9219 15.7852 76.1953 14.9883C76.4688 14.1914 76.8594 13.5 77.3672 12.9141C77.8828 12.3281 78.5078 11.8789 79.2422 11.5664C79.9766 11.2461 80.8047 11.0859 81.7266 11.0859C82.625 11.0859 83.4219 11.2344 84.1172 11.5312C84.8125 11.8281 85.3945 12.25 85.8633 12.7969C86.3398 13.3438 86.6992 14 86.9414 14.7656C87.1836 15.5234 87.3047 16.3672 87.3047 17.2969V18.7031H77.2266V16.4531H83.9883V16.1953C83.9883 15.7266 83.9023 15.3086 83.7305 14.9414C83.5664 14.5664 83.3164 14.2695 82.9805 14.0508C82.6445 13.832 82.2148 13.7227 81.6914 13.7227C81.2461 13.7227 80.8633 13.8203 80.543 14.0156C80.2227 14.2109 79.9609 14.4844 79.7578 14.8359C79.5625 15.1875 79.4141 15.6016 79.3125 16.0781C79.2188 16.5469 79.1719 17.0625 79.1719 17.625V18.0938C79.1719 18.6016 79.2422 19.0703 79.3828 19.5C79.5312 19.9297 79.7383 20.3008 80.0039 20.6133C80.2773 20.9258 80.6055 21.168 80.9883 21.3398C81.3789 21.5117 81.8203 21.5977 82.3125 21.5977C82.9219 21.5977 83.4883 21.4805 84.0117 21.2461C84.543 21.0039 85 20.6406 85.3828 20.1562L87.0234 21.9375C86.7578 22.3203 86.3945 22.6875 85.9336 23.0391C85.4805 23.3906 84.9336 23.6797 84.293 23.9062C83.6523 24.125 82.9219 24.2344 82.1016 24.2344ZM92.6016 13.9453V24H89.2148V11.3203H92.3906L92.6016 13.9453ZM92.1328 17.2148H91.1953C91.1953 16.332 91.3008 15.5195 91.5117 14.7773C91.7305 14.0273 92.0469 13.3789 92.4609 12.832C92.8828 12.2773 93.4023 11.8477 94.0195 11.543C94.6367 11.2383 95.3516 11.0859 96.1641 11.0859C96.7266 11.0859 97.2422 11.1719 97.7109 11.3438C98.1797 11.5078 98.582 11.7695 98.918 12.1289C99.2617 12.4805 99.5273 12.9414 99.7148 13.5117C99.9023 14.0742 99.9961 14.75 99.9961 15.5391V24H96.6211V15.9141C96.6211 15.3359 96.543 14.8906 96.3867 14.5781C96.2305 14.2656 96.0078 14.0469 95.7188 13.9219C95.4375 13.7969 95.0977 13.7344 94.6992 13.7344C94.2617 13.7344 93.8789 13.8242 93.5508 14.0039C93.2305 14.1836 92.9648 14.4336 92.7539 14.7539C92.543 15.0664 92.3867 15.4336 92.2852 15.8555C92.1836 16.2773 92.1328 16.7305 92.1328 17.2148ZM99.6797 16.8281L98.4727 16.9805C98.4727 16.1523 98.5742 15.3828 98.7773 14.6719C98.9883 13.9609 99.2969 13.3359 99.7031 12.7969C100.117 12.2578 100.629 11.8398 101.238 11.543C101.848 11.2383 102.551 11.0859 103.348 11.0859C103.957 11.0859 104.512 11.1758 105.012 11.3555C105.512 11.5273 105.938 11.8047 106.289 12.1875C106.648 12.5625 106.922 13.0547 107.109 13.6641C107.305 14.2734 107.402 15.0195 107.402 15.9023V24H104.016V15.9023C104.016 15.3164 103.938 14.8711 103.781 14.5664C103.633 14.2539 103.414 14.0391 103.125 13.9219C102.844 13.7969 102.508 13.7344 102.117 13.7344C101.711 13.7344 101.355 13.8164 101.051 13.9805C100.746 14.1367 100.492 14.3555 100.289 14.6367C100.086 14.918 99.9336 15.2461 99.832 15.6211C99.7305 15.9883 99.6797 16.3906 99.6797 16.8281ZM110.016 6H113.391V21.0938L113.051 24H110.016V6ZM121.418 17.5312V17.7773C121.418 18.7227 121.316 19.5898 121.113 20.3789C120.918 21.168 120.613 21.8516 120.199 22.4297C119.785 23 119.27 23.4453 118.652 23.7656C118.043 24.0781 117.324 24.2344 116.496 24.2344C115.723 24.2344 115.051 24.0781 114.48 23.7656C113.918 23.4531 113.445 23.0117 113.062 22.4414C112.68 21.8711 112.371 21.2031 112.137 20.4375C111.902 19.6719 111.727 18.8359 111.609 17.9297V17.3906C111.727 16.4844 111.902 15.6484 112.137 14.8828C112.371 14.1172 112.68 13.4492 113.062 12.8789C113.445 12.3086 113.918 11.8672 114.48 11.5547C115.043 11.2422 115.707 11.0859 116.473 11.0859C117.309 11.0859 118.035 11.2461 118.652 11.5664C119.277 11.8789 119.793 12.3242 120.199 12.9023C120.613 13.4727 120.918 14.1523 121.113 14.9414C121.316 15.7227 121.418 16.5859 121.418 17.5312ZM118.043 17.7773V17.5312C118.043 17.0156 118.004 16.5312 117.926 16.0781C117.855 15.6172 117.73 15.2148 117.551 14.8711C117.371 14.5195 117.125 14.2422 116.812 14.0391C116.508 13.8359 116.113 13.7344 115.629 13.7344C115.168 13.7344 114.777 13.8125 114.457 13.9688C114.137 14.125 113.871 14.3438 113.66 14.625C113.457 14.9062 113.305 15.2422 113.203 15.6328C113.102 16.0156 113.039 16.4375 113.016 16.8984V18.4336C113.039 19.0508 113.141 19.5977 113.32 20.0742C113.508 20.543 113.789 20.9141 114.164 21.1875C114.547 21.4531 115.043 21.5859 115.652 21.5859C116.129 21.5859 116.523 21.4922 116.836 21.3047C117.148 21.1172 117.391 20.8516 117.562 20.5078C117.742 20.1641 117.867 19.7617 117.938 19.3008C118.008 18.832 118.043 18.3242 118.043 17.7773ZM130.359 21.1406V15.4922C130.359 15.0859 130.293 14.7383 130.16 14.4492C130.027 14.1523 129.82 13.9219 129.539 13.7578C129.266 13.5938 128.91 13.5117 128.473 13.5117C128.098 13.5117 127.773 13.5781 127.5 13.7109C127.227 13.8359 127.016 14.0195 126.867 14.2617C126.719 14.4961 126.645 14.7734 126.645 15.0938H123.27C123.27 14.5547 123.395 14.043 123.645 13.5586C123.895 13.0742 124.258 12.6484 124.734 12.2812C125.211 11.9062 125.777 11.6133 126.434 11.4023C127.098 11.1914 127.84 11.0859 128.66 11.0859C129.645 11.0859 130.52 11.25 131.285 11.5781C132.051 11.9062 132.652 12.3984 133.09 13.0547C133.535 13.7109 133.758 14.5312 133.758 15.5156V20.9414C133.758 21.6367 133.801 22.207 133.887 22.6523C133.973 23.0898 134.098 23.4727 134.262 23.8008V24H130.852C130.688 23.6562 130.562 23.2266 130.477 22.7109C130.398 22.1875 130.359 21.6641 130.359 21.1406ZM130.805 16.2773L130.828 18.1875H128.941C128.496 18.1875 128.109 18.2383 127.781 18.3398C127.453 18.4414 127.184 18.5859 126.973 18.7734C126.762 18.9531 126.605 19.1641 126.504 19.4062C126.41 19.6484 126.363 19.9141 126.363 20.2031C126.363 20.4922 126.43 20.7539 126.562 20.9883C126.695 21.2148 126.887 21.3945 127.137 21.5273C127.387 21.6523 127.68 21.7148 128.016 21.7148C128.523 21.7148 128.965 21.6133 129.34 21.4102C129.715 21.207 130.004 20.957 130.207 20.6602C130.418 20.3633 130.527 20.082 130.535 19.8164L131.426 21.2461C131.301 21.5664 131.129 21.8984 130.91 22.2422C130.699 22.5859 130.43 22.9102 130.102 23.2148C129.773 23.5117 129.379 23.7578 128.918 23.9531C128.457 24.1406 127.91 24.2344 127.277 24.2344C126.473 24.2344 125.742 24.0742 125.086 23.7539C124.438 23.4258 123.922 22.9766 123.539 22.4062C123.164 21.8281 122.977 21.1719 122.977 20.4375C122.977 19.7734 123.102 19.1836 123.352 18.668C123.602 18.1523 123.969 17.7188 124.453 17.3672C124.945 17.0078 125.559 16.7383 126.293 16.5586C127.027 16.3711 127.879 16.2773 128.848 16.2773H130.805ZM139.922 6V24H136.535V6H139.922ZM146.273 11.3203V24H142.887V11.3203H146.273ZM142.676 8.01562C142.676 7.52344 142.848 7.11719 143.191 6.79688C143.535 6.47656 143.996 6.31641 144.574 6.31641C145.145 6.31641 145.602 6.47656 145.945 6.79688C146.297 7.11719 146.473 7.52344 146.473 8.01562C146.473 8.50781 146.297 8.91406 145.945 9.23438C145.602 9.55469 145.145 9.71484 144.574 9.71484C143.996 9.71484 143.535 9.55469 143.191 9.23438C142.848 8.91406 142.676 8.50781 142.676 8.01562Z" fill="#5A637A"/>
</g>
<defs>
<filter id="filter0_d_12_58019" x="0" y="0" width="152" height="40" filterUnits="userSpaceOnUse" color-interpolation-filters="sRGB">
<feFlood flood-opacity="0" result="BackgroundImageFix"/>
<feColorMatrix in="SourceAlpha" type="matrix" values="0 0 0 0 0 0 0 0 0 0 0 0 0 0 0 0 0 0 127 0" result="hardAlpha"/>
<feOffset dy="4"/>
<feGaussianBlur stdDeviation="2"/>
<feComposite in2="hardAlpha" operator="out"/>
<feColorMatrix type="matrix" values="0 0 0 0 0 0 0 0 0 0 0 0 0 0 0 0 0 0 0.25 0"/>
<feBlend mode="normal" in2="BackgroundImageFix" result="effect1_dropShadow_12_58019"/>
<feBlend mode="normal" in="SourceGraphic" in2="effect1_dropShadow_12_58019" result="shape"/>
</filter>
</defs>
</svg>
