<svg width="55" height="30" viewBox="0 0 55 30" fill="none" xmlns="http://www.w3.org/2000/svg">
<path d="M19.5527 10.4688V19H18.416L14.1211 12.4199V19H12.9902V10.4688H14.1211L18.4336 17.0664V10.4688H19.5527ZM24.0234 19.1172C23.582 19.1172 23.1816 19.043 22.8223 18.8945C22.4668 18.7422 22.1602 18.5293 21.9023 18.2559C21.6484 17.9824 21.4531 17.6582 21.3164 17.2832C21.1797 16.9082 21.1113 16.498 21.1113 16.0527V15.8066C21.1113 15.291 21.1875 14.832 21.3398 14.4297C21.4922 14.0234 21.6992 13.6797 21.9609 13.3984C22.2227 13.1172 22.5195 12.9043 22.8516 12.7598C23.1836 12.6152 23.5273 12.543 23.8828 12.543C24.3359 12.543 24.7266 12.6211 25.0547 12.7773C25.3867 12.9336 25.6582 13.1523 25.8691 13.4336C26.0801 13.7109 26.2363 14.0391 26.3379 14.418C26.4395 14.793 26.4902 15.2031 26.4902 15.6484V16.1348H21.7559V15.25H25.4062V15.168C25.3906 14.8867 25.332 14.6133 25.2305 14.3477C25.1328 14.082 24.9766 13.8633 24.7617 13.6914C24.5469 13.5195 24.2539 13.4336 23.8828 13.4336C23.6367 13.4336 23.4102 13.4863 23.2031 13.5918C22.9961 13.6934 22.8184 13.8457 22.6699 14.0488C22.5215 14.252 22.4062 14.5 22.3242 14.793C22.2422 15.0859 22.2012 15.4238 22.2012 15.8066V16.0527C22.2012 16.3535 22.2422 16.6367 22.3242 16.9023C22.4102 17.1641 22.5332 17.3945 22.6934 17.5938C22.8574 17.793 23.0547 17.9492 23.2852 18.0625C23.5195 18.1758 23.7852 18.2324 24.082 18.2324C24.4648 18.2324 24.7891 18.1543 25.0547 17.998C25.3203 17.8418 25.5527 17.6328 25.752 17.3711L26.4082 17.8926C26.2715 18.0996 26.0977 18.2969 25.8867 18.4844C25.6758 18.6719 25.416 18.8242 25.1074 18.9414C24.8027 19.0586 24.4414 19.1172 24.0234 19.1172ZM29.3613 17.875L30.9902 12.6602H31.7051L31.5645 13.6973L29.9062 19H29.209L29.3613 17.875ZM28.2656 12.6602L29.6543 17.9336L29.7539 19H29.0215L27.1816 12.6602H28.2656ZM33.2637 17.8926L34.5879 12.6602H35.666L33.8262 19H33.0996L33.2637 17.8926ZM31.8633 12.6602L33.457 17.7871L33.6387 19H32.9473L31.2422 13.6855L31.1016 12.6602H31.8633ZM40.4707 17.3184C40.4707 17.1621 40.4355 17.0176 40.3652 16.8848C40.2988 16.748 40.1602 16.625 39.9492 16.5156C39.7422 16.4023 39.4297 16.3047 39.0117 16.2227C38.6602 16.1484 38.3418 16.0605 38.0566 15.959C37.7754 15.8574 37.5352 15.7344 37.3359 15.5898C37.1406 15.4453 36.9902 15.2754 36.8848 15.0801C36.7793 14.8848 36.7266 14.6562 36.7266 14.3945C36.7266 14.1445 36.7812 13.9082 36.8906 13.6855C37.0039 13.4629 37.1621 13.2656 37.3652 13.0938C37.5723 12.9219 37.8203 12.7871 38.1094 12.6895C38.3984 12.5918 38.7207 12.543 39.0762 12.543C39.584 12.543 40.0176 12.6328 40.377 12.8125C40.7363 12.9922 41.0117 13.2324 41.2031 13.5332C41.3945 13.8301 41.4902 14.1602 41.4902 14.5234H40.4062C40.4062 14.3477 40.3535 14.1777 40.248 14.0137C40.1465 13.8457 39.9961 13.707 39.7969 13.5977C39.6016 13.4883 39.3613 13.4336 39.0762 13.4336C38.7754 13.4336 38.5312 13.4805 38.3438 13.5742C38.1602 13.6641 38.0254 13.7793 37.9395 13.9199C37.8574 14.0605 37.8164 14.209 37.8164 14.3652C37.8164 14.4824 37.8359 14.5879 37.875 14.6816C37.918 14.7715 37.9922 14.8555 38.0977 14.9336C38.2031 15.0078 38.3516 15.0781 38.543 15.1445C38.7344 15.2109 38.9785 15.2773 39.2754 15.3438C39.7949 15.4609 40.2227 15.6016 40.5586 15.7656C40.8945 15.9297 41.1445 16.1309 41.3086 16.3691C41.4727 16.6074 41.5547 16.8965 41.5547 17.2363C41.5547 17.5137 41.4961 17.7676 41.3789 17.998C41.2656 18.2285 41.0996 18.4277 40.8809 18.5957C40.666 18.7598 40.4082 18.8887 40.1074 18.9824C39.8105 19.0723 39.4766 19.1172 39.1055 19.1172C38.5469 19.1172 38.0742 19.0176 37.6875 18.8184C37.3008 18.6191 37.0078 18.3613 36.8086 18.0449C36.6094 17.7285 36.5098 17.3945 36.5098 17.043H37.5996C37.6152 17.3398 37.7012 17.5762 37.8574 17.752C38.0137 17.9238 38.2051 18.0469 38.4316 18.1211C38.6582 18.1914 38.8828 18.2266 39.1055 18.2266C39.4023 18.2266 39.6504 18.1875 39.8496 18.1094C40.0527 18.0312 40.207 17.9238 40.3125 17.7871C40.418 17.6504 40.4707 17.4941 40.4707 17.3184Z" fill="#333333"/>
<path d="M0 0V-1H-1V0H0ZM55 0H56V-1H55V0ZM55 30V31H56V30H55ZM0 30H-1V31H0V30ZM0 1H55V-1H0V1ZM54 0V30H56V0H54ZM55 29H0V31H55V29ZM1 30V0H-1V30H1Z" fill="#333D58"/>
</svg>
