<svg width="120" height="48" viewBox="0 0 120 48" fill="none" xmlns="http://www.w3.org/2000/svg">
<path d="M29.2285 27.4062C29.2285 27.0742 29.1764 26.7812 29.0723 26.5273C28.9746 26.2669 28.7988 26.0326 28.5449 25.8242C28.2975 25.6159 27.9525 25.4173 27.5098 25.2285C27.0736 25.0397 26.5202 24.8477 25.8496 24.6523C25.1465 24.444 24.5117 24.2129 23.9453 23.959C23.3789 23.6986 22.8939 23.4023 22.4902 23.0703C22.0866 22.7383 21.7773 22.3574 21.5625 21.9277C21.3477 21.498 21.2402 21.0065 21.2402 20.4531C21.2402 19.8997 21.3542 19.3887 21.582 18.9199C21.8099 18.4512 22.1354 18.0443 22.5586 17.6992C22.9883 17.3477 23.4993 17.0742 24.0918 16.8789C24.6842 16.6836 25.3451 16.5859 26.0742 16.5859C27.1419 16.5859 28.0469 16.791 28.7891 17.2012C29.5378 17.6048 30.1074 18.1354 30.498 18.793C30.8887 19.444 31.084 20.1406 31.084 20.8828H29.209C29.209 20.349 29.0951 19.877 28.8672 19.4668C28.6393 19.0501 28.2943 18.7246 27.832 18.4902C27.3698 18.2493 26.7839 18.1289 26.0742 18.1289C25.4036 18.1289 24.8503 18.2298 24.4141 18.4316C23.9779 18.6335 23.6523 18.9069 23.4375 19.252C23.2292 19.597 23.125 19.9909 23.125 20.4336C23.125 20.7331 23.1868 21.0065 23.3105 21.2539C23.4408 21.4948 23.6393 21.7194 23.9062 21.9277C24.1797 22.1361 24.5247 22.3281 24.9414 22.5039C25.3646 22.6797 25.8691 22.849 26.4551 23.0117C27.2624 23.2396 27.959 23.4935 28.5449 23.7734C29.1309 24.0534 29.6126 24.3691 29.9902 24.7207C30.3743 25.0658 30.6576 25.4596 30.8398 25.9023C31.0286 26.3385 31.123 26.8333 31.123 27.3867C31.123 27.9661 31.0059 28.4902 30.7715 28.959C30.5371 29.4277 30.2018 29.8281 29.7656 30.1602C29.3294 30.4922 28.8053 30.7493 28.1934 30.9316C27.5879 31.1074 26.9108 31.1953 26.1621 31.1953C25.5046 31.1953 24.8568 31.1042 24.2188 30.9219C23.5872 30.7396 23.0111 30.4661 22.4902 30.1016C21.9759 29.737 21.5625 29.2878 21.25 28.7539C20.944 28.2135 20.791 27.5885 20.791 26.8789H22.666C22.666 27.3672 22.7604 27.7871 22.9492 28.1387C23.138 28.4837 23.3952 28.7702 23.7207 28.998C24.0527 29.2259 24.4271 29.3952 24.8438 29.5059C25.2669 29.61 25.7064 29.6621 26.1621 29.6621C26.8197 29.6621 27.3763 29.571 27.832 29.3887C28.2878 29.2064 28.6328 28.946 28.8672 28.6074C29.1081 28.2689 29.2285 27.8685 29.2285 27.4062ZM35.0586 22.4648V35.0625H33.2422V20.4336H34.9023L35.0586 22.4648ZM42.1777 25.6289V25.834C42.1777 26.6022 42.0866 27.3151 41.9043 27.9727C41.722 28.6237 41.4551 29.1901 41.1035 29.6719C40.7585 30.1536 40.332 30.528 39.8242 30.7949C39.3164 31.0618 38.7337 31.1953 38.0762 31.1953C37.4056 31.1953 36.8132 31.0846 36.2988 30.8633C35.7845 30.6419 35.3483 30.3197 34.9902 29.8965C34.6322 29.4733 34.3457 28.9655 34.1309 28.373C33.9225 27.7806 33.7793 27.1133 33.7012 26.3711V25.2773C33.7793 24.4961 33.9258 23.7962 34.1406 23.1777C34.3555 22.5592 34.6387 22.0319 34.9902 21.5957C35.3483 21.153 35.7812 20.8177 36.2891 20.5898C36.7969 20.3555 37.3828 20.2383 38.0469 20.2383C38.7109 20.2383 39.3001 20.3685 39.8145 20.6289C40.3288 20.8828 40.7617 21.2474 41.1133 21.7227C41.4648 22.1979 41.7285 22.7676 41.9043 23.4316C42.0866 24.0892 42.1777 24.8216 42.1777 25.6289ZM40.3613 25.834V25.6289C40.3613 25.1016 40.306 24.6068 40.1953 24.1445C40.0846 23.6758 39.9121 23.2656 39.6777 22.9141C39.4499 22.556 39.1569 22.276 38.7988 22.0742C38.4408 21.8659 38.0143 21.7617 37.5195 21.7617C37.0638 21.7617 36.6667 21.8398 36.3281 21.9961C35.9961 22.1523 35.7129 22.3639 35.4785 22.6309C35.2441 22.8913 35.0521 23.1908 34.9023 23.5293C34.7591 23.8613 34.6517 24.2064 34.5801 24.5645V27.0938C34.7103 27.5495 34.8926 27.9792 35.127 28.3828C35.3613 28.7799 35.6738 29.1022 36.0645 29.3496C36.4551 29.5905 36.9466 29.7109 37.5391 29.7109C38.0273 29.7109 38.4473 29.61 38.7988 29.4082C39.1569 29.1999 39.4499 28.9167 39.6777 28.5586C39.9121 28.2005 40.0846 27.7904 40.1953 27.3281C40.306 26.8594 40.3613 26.3613 40.3613 25.834ZM44.0039 25.834V25.6094C44.0039 24.8477 44.1146 24.1413 44.3359 23.4902C44.5573 22.8327 44.8763 22.263 45.293 21.7812C45.7096 21.293 46.2142 20.9154 46.8066 20.6484C47.3991 20.375 48.0632 20.2383 48.7988 20.2383C49.541 20.2383 50.2083 20.375 50.8008 20.6484C51.3997 20.9154 51.9076 21.293 52.3242 21.7812C52.7474 22.263 53.0697 22.8327 53.291 23.4902C53.5124 24.1413 53.623 24.8477 53.623 25.6094V25.834C53.623 26.5957 53.5124 27.3021 53.291 27.9531C53.0697 28.6042 52.7474 29.1738 52.3242 29.6621C51.9076 30.1439 51.403 30.5215 50.8105 30.7949C50.2246 31.0618 49.5605 31.1953 48.8184 31.1953C48.0762 31.1953 47.4089 31.0618 46.8164 30.7949C46.224 30.5215 45.7161 30.1439 45.293 29.6621C44.8763 29.1738 44.5573 28.6042 44.3359 27.9531C44.1146 27.3021 44.0039 26.5957 44.0039 25.834ZM45.8105 25.6094V25.834C45.8105 26.3613 45.8724 26.8594 45.9961 27.3281C46.1198 27.7904 46.3053 28.2005 46.5527 28.5586C46.8066 28.9167 47.1224 29.1999 47.5 29.4082C47.8776 29.61 48.3171 29.7109 48.8184 29.7109C49.3132 29.7109 49.7461 29.61 50.1172 29.4082C50.4948 29.1999 50.8073 28.9167 51.0547 28.5586C51.3021 28.2005 51.4876 27.7904 51.6113 27.3281C51.7415 26.8594 51.8066 26.3613 51.8066 25.834V25.6094C51.8066 25.0885 51.7415 24.597 51.6113 24.1348C51.4876 23.666 51.2988 23.2526 51.0449 22.8945C50.7975 22.5299 50.485 22.2435 50.1074 22.0352C49.7363 21.8268 49.3001 21.7227 48.7988 21.7227C48.304 21.7227 47.8678 21.8268 47.4902 22.0352C47.1191 22.2435 46.8066 22.5299 46.5527 22.8945C46.3053 23.2526 46.1198 23.666 45.9961 24.1348C45.8724 24.597 45.8105 25.0885 45.8105 25.6094ZM60.3125 20.4336V21.8203H54.5996V20.4336H60.3125ZM56.5332 17.8652H58.3398V28.3828C58.3398 28.7409 58.3952 29.0111 58.5059 29.1934C58.6165 29.3757 58.7598 29.4961 58.9355 29.5547C59.1113 29.6133 59.3001 29.6426 59.502 29.6426C59.6517 29.6426 59.8079 29.6296 59.9707 29.6035C60.14 29.571 60.2669 29.5449 60.3516 29.5254L60.3613 31C60.2181 31.0456 60.0293 31.0879 59.7949 31.127C59.5671 31.1725 59.2904 31.1953 58.9648 31.1953C58.5221 31.1953 58.1152 31.1074 57.7441 30.9316C57.373 30.7559 57.0768 30.4629 56.8555 30.0527C56.6406 29.6361 56.5332 29.0762 56.5332 28.373V17.8652ZM64.3945 16V31H62.5781V16H64.3945ZM69.2578 20.4336V31H67.4414V20.4336H69.2578ZM67.3047 17.6309C67.3047 17.3379 67.3926 17.0905 67.5684 16.8887C67.7507 16.6868 68.0176 16.5859 68.3691 16.5859C68.7142 16.5859 68.9779 16.6868 69.1602 16.8887C69.349 17.0905 69.4434 17.3379 69.4434 17.6309C69.4434 17.9108 69.349 18.1517 69.1602 18.3535C68.9779 18.5488 68.7142 18.6465 68.3691 18.6465C68.0176 18.6465 67.7507 18.5488 67.5684 18.3535C67.3926 18.1517 67.3047 17.9108 67.3047 17.6309ZM79.0039 20.4336H80.6445V30.7754C80.6445 31.7064 80.4557 32.5007 80.0781 33.1582C79.7005 33.8158 79.1732 34.3138 78.4961 34.6523C77.8255 34.9974 77.0508 35.1699 76.1719 35.1699C75.8073 35.1699 75.3776 35.1113 74.8828 34.9941C74.3945 34.8835 73.9128 34.6914 73.4375 34.418C72.9688 34.151 72.5749 33.7897 72.2559 33.334L73.2031 32.2598C73.6458 32.7936 74.1081 33.1647 74.5898 33.373C75.0781 33.5814 75.5599 33.6855 76.0352 33.6855C76.6081 33.6855 77.1029 33.5781 77.5195 33.3633C77.9362 33.1484 78.2585 32.8294 78.4863 32.4062C78.7207 31.9896 78.8379 31.4753 78.8379 30.8633V22.7578L79.0039 20.4336ZM71.7285 25.834V25.6289C71.7285 24.8216 71.8229 24.0892 72.0117 23.4316C72.207 22.7676 72.4837 22.1979 72.8418 21.7227C73.2064 21.2474 73.6458 20.8828 74.1602 20.6289C74.6745 20.3685 75.2539 20.2383 75.8984 20.2383C76.5625 20.2383 77.1419 20.3555 77.6367 20.5898C78.138 20.8177 78.5612 21.153 78.9062 21.5957C79.2578 22.0319 79.5345 22.5592 79.7363 23.1777C79.9382 23.7962 80.0781 24.4961 80.1562 25.2773V26.1758C80.0846 26.9505 79.9447 27.6471 79.7363 28.2656C79.5345 28.8841 79.2578 29.4115 78.9062 29.8477C78.5612 30.2839 78.138 30.6191 77.6367 30.8535C77.1354 31.0814 76.5495 31.1953 75.8789 31.1953C75.2474 31.1953 74.6745 31.0618 74.1602 30.7949C73.6523 30.528 73.2161 30.1536 72.8516 29.6719C72.487 29.1901 72.207 28.6237 72.0117 27.9727C71.8229 27.3151 71.7285 26.6022 71.7285 25.834ZM73.5352 25.6289V25.834C73.5352 26.3613 73.5872 26.8561 73.6914 27.3184C73.8021 27.7806 73.9681 28.1875 74.1895 28.5391C74.4173 28.8906 74.707 29.1673 75.0586 29.3691C75.4102 29.5645 75.8301 29.6621 76.3184 29.6621C76.9173 29.6621 77.4121 29.5352 77.8027 29.2812C78.1934 29.0273 78.5026 28.6921 78.7305 28.2754C78.9648 27.8587 79.1471 27.4062 79.2773 26.918V24.5645C79.2057 24.2064 79.0951 23.8613 78.9453 23.5293C78.8021 23.1908 78.6133 22.8913 78.3789 22.6309C78.151 22.3639 77.8678 22.1523 77.5293 21.9961C77.1908 21.8398 76.7936 21.7617 76.3379 21.7617C75.8431 21.7617 75.4167 21.8659 75.0586 22.0742C74.707 22.276 74.4173 22.556 74.1895 22.9141C73.9681 23.2656 73.8021 23.6758 73.6914 24.1445C73.5872 24.6068 73.5352 25.1016 73.5352 25.6289ZM85.1953 16V31H83.3887V16H85.1953ZM84.7656 25.3164L84.0137 25.2871C84.0202 24.5645 84.1276 23.8971 84.3359 23.2852C84.5443 22.6667 84.8372 22.1296 85.2148 21.6738C85.5924 21.2181 86.0417 20.8665 86.5625 20.6191C87.0898 20.3652 87.6725 20.2383 88.3105 20.2383C88.8314 20.2383 89.3001 20.3099 89.7168 20.4531C90.1335 20.5898 90.4883 20.8112 90.7812 21.1172C91.0807 21.4232 91.3086 21.8203 91.4648 22.3086C91.6211 22.7904 91.6992 23.3796 91.6992 24.0762V31H89.8828V24.0566C89.8828 23.5033 89.8014 23.0605 89.6387 22.7285C89.4759 22.39 89.2383 22.1458 88.9258 21.9961C88.6133 21.8398 88.2292 21.7617 87.7734 21.7617C87.3242 21.7617 86.9141 21.8561 86.543 22.0449C86.1784 22.2337 85.8626 22.4941 85.5957 22.8262C85.3353 23.1582 85.1302 23.5391 84.9805 23.9688C84.8372 24.3919 84.7656 24.8411 84.7656 25.3164ZM98.8281 20.4336V21.8203H93.1152V20.4336H98.8281ZM95.0488 17.8652H96.8555V28.3828C96.8555 28.7409 96.9108 29.0111 97.0215 29.1934C97.1322 29.3757 97.2754 29.4961 97.4512 29.5547C97.627 29.6133 97.8158 29.6426 98.0176 29.6426C98.1673 29.6426 98.3236 29.6296 98.4863 29.6035C98.6556 29.571 98.7826 29.5449 98.8672 29.5254L98.877 31C98.7337 31.0456 98.5449 31.0879 98.3105 31.127C98.0827 31.1725 97.806 31.1953 97.4805 31.1953C97.0378 31.1953 96.6309 31.1074 96.2598 30.9316C95.8887 30.7559 95.5924 30.4629 95.3711 30.0527C95.1562 29.6361 95.0488 29.0762 95.0488 28.373V17.8652Z" fill="#333333"/>
<path d="M0 0V-1H-1V0H0ZM120 0H121V-1H120V0ZM120 48V49H121V48H120ZM0 48H-1V49H0V48ZM0 1H120V-1H0V1ZM119 0V48H121V0H119ZM120 47H0V49H120V47ZM1 48V0H-1V48H1Z" fill="#333D58"/>
</svg>
