<svg width="55" height="30" viewBox="0 0 55 30" fill="none" xmlns="http://www.w3.org/2000/svg">
<path d="M15.7441 17.7051L18.2578 10.4688H19.4824L16.3242 19H15.4512L15.7441 17.7051ZM13.3945 10.4688L15.8848 17.7051L16.1953 19H15.3223L12.1699 10.4688H13.3945ZM21.6445 12.6602V19H20.5547V12.6602H21.6445ZM20.4727 10.9785C20.4727 10.8027 20.5254 10.6543 20.6309 10.5332C20.7402 10.4121 20.9004 10.3516 21.1113 10.3516C21.3184 10.3516 21.4766 10.4121 21.5859 10.5332C21.6992 10.6543 21.7559 10.8027 21.7559 10.9785C21.7559 11.1465 21.6992 11.291 21.5859 11.4121C21.4766 11.5293 21.3184 11.5879 21.1113 11.5879C20.9004 11.5879 20.7402 11.5293 20.6309 11.4121C20.5254 11.291 20.4727 11.1465 20.4727 10.9785ZM27.3809 17.7695V10H28.4707V19H27.4746L27.3809 17.7695ZM23.1152 15.9004V15.7773C23.1152 15.293 23.1738 14.8535 23.291 14.459C23.4121 14.0605 23.582 13.7188 23.8008 13.4336C24.0234 13.1484 24.2871 12.9297 24.5918 12.7773C24.9004 12.6211 25.2441 12.543 25.623 12.543C26.0215 12.543 26.3691 12.6133 26.666 12.7539C26.9668 12.8906 27.2207 13.0918 27.4277 13.3574C27.6387 13.6191 27.8047 13.9355 27.9258 14.3066C28.0469 14.6777 28.1309 15.0977 28.1777 15.5664V16.1055C28.1348 16.5703 28.0508 16.9883 27.9258 17.3594C27.8047 17.7305 27.6387 18.0469 27.4277 18.3086C27.2207 18.5703 26.9668 18.7715 26.666 18.9121C26.3652 19.0488 26.0137 19.1172 25.6113 19.1172C25.2402 19.1172 24.9004 19.0371 24.5918 18.877C24.2871 18.7168 24.0234 18.4922 23.8008 18.2031C23.582 17.9141 23.4121 17.5742 23.291 17.1836C23.1738 16.7891 23.1152 16.3613 23.1152 15.9004ZM24.2051 15.7773V15.9004C24.2051 16.2168 24.2363 16.5137 24.2988 16.791C24.3652 17.0684 24.4668 17.3125 24.6035 17.5234C24.7402 17.7344 24.9141 17.9004 25.125 18.0215C25.3359 18.1387 25.5879 18.1973 25.8809 18.1973C26.2402 18.1973 26.5352 18.1211 26.7656 17.9688C27 17.8164 27.1875 17.6152 27.3281 17.3652C27.4688 17.1152 27.5781 16.8438 27.6562 16.5508V15.1387C27.6094 14.9238 27.541 14.7168 27.4512 14.5176C27.3652 14.3145 27.252 14.1348 27.1113 13.9785C26.9746 13.8184 26.8047 13.6914 26.6016 13.5977C26.4023 13.5039 26.166 13.457 25.8926 13.457C25.5957 13.457 25.3398 13.5195 25.125 13.6445C24.9141 13.7656 24.7402 13.9336 24.6035 14.1484C24.4668 14.3594 24.3652 14.6055 24.2988 14.8867C24.2363 15.1641 24.2051 15.4609 24.2051 15.7773ZM32.7891 19.1172C32.3477 19.1172 31.9473 19.043 31.5879 18.8945C31.2324 18.7422 30.9258 18.5293 30.668 18.2559C30.4141 17.9824 30.2188 17.6582 30.082 17.2832C29.9453 16.9082 29.877 16.498 29.877 16.0527V15.8066C29.877 15.291 29.9531 14.832 30.1055 14.4297C30.2578 14.0234 30.4648 13.6797 30.7266 13.3984C30.9883 13.1172 31.2852 12.9043 31.6172 12.7598C31.9492 12.6152 32.293 12.543 32.6484 12.543C33.1016 12.543 33.4922 12.6211 33.8203 12.7773C34.1523 12.9336 34.4238 13.1523 34.6348 13.4336C34.8457 13.7109 35.002 14.0391 35.1035 14.418C35.2051 14.793 35.2559 15.2031 35.2559 15.6484V16.1348H30.5215V15.25H34.1719V15.168C34.1562 14.8867 34.0977 14.6133 33.9961 14.3477C33.8984 14.082 33.7422 13.8633 33.5273 13.6914C33.3125 13.5195 33.0195 13.4336 32.6484 13.4336C32.4023 13.4336 32.1758 13.4863 31.9688 13.5918C31.7617 13.6934 31.584 13.8457 31.4355 14.0488C31.2871 14.252 31.1719 14.5 31.0898 14.793C31.0078 15.0859 30.9668 15.4238 30.9668 15.8066V16.0527C30.9668 16.3535 31.0078 16.6367 31.0898 16.9023C31.1758 17.1641 31.2988 17.3945 31.459 17.5938C31.623 17.793 31.8203 17.9492 32.0508 18.0625C32.2852 18.1758 32.5508 18.2324 32.8477 18.2324C33.2305 18.2324 33.5547 18.1543 33.8203 17.998C34.0859 17.8418 34.3184 17.6328 34.5176 17.3711L35.1738 17.8926C35.0371 18.0996 34.8633 18.2969 34.6523 18.4844C34.4414 18.6719 34.1816 18.8242 33.873 18.9414C33.5684 19.0586 33.207 19.1172 32.7891 19.1172ZM36.2344 15.9004V15.7656C36.2344 15.3086 36.3008 14.8848 36.4336 14.4941C36.5664 14.0996 36.7578 13.7578 37.0078 13.4688C37.2578 13.1758 37.5605 12.9492 37.916 12.7891C38.2715 12.625 38.6699 12.543 39.1113 12.543C39.5566 12.543 39.957 12.625 40.3125 12.7891C40.6719 12.9492 40.9766 13.1758 41.2266 13.4688C41.4805 13.7578 41.6738 14.0996 41.8066 14.4941C41.9395 14.8848 42.0059 15.3086 42.0059 15.7656V15.9004C42.0059 16.3574 41.9395 16.7812 41.8066 17.1719C41.6738 17.5625 41.4805 17.9043 41.2266 18.1973C40.9766 18.4863 40.6738 18.7129 40.3184 18.877C39.9668 19.0371 39.5684 19.1172 39.123 19.1172C38.6777 19.1172 38.2773 19.0371 37.9219 18.877C37.5664 18.7129 37.2617 18.4863 37.0078 18.1973C36.7578 17.9043 36.5664 17.5625 36.4336 17.1719C36.3008 16.7812 36.2344 16.3574 36.2344 15.9004ZM37.3184 15.7656V15.9004C37.3184 16.2168 37.3555 16.5156 37.4297 16.7969C37.5039 17.0742 37.6152 17.3203 37.7637 17.5352C37.916 17.75 38.1055 17.9199 38.332 18.0449C38.5586 18.166 38.8223 18.2266 39.123 18.2266C39.4199 18.2266 39.6797 18.166 39.9023 18.0449C40.1289 17.9199 40.3164 17.75 40.4648 17.5352C40.6133 17.3203 40.7246 17.0742 40.7988 16.7969C40.877 16.5156 40.916 16.2168 40.916 15.9004V15.7656C40.916 15.4531 40.877 15.1582 40.7988 14.8809C40.7246 14.5996 40.6113 14.3516 40.459 14.1367C40.3105 13.918 40.123 13.7461 39.8965 13.6211C39.6738 13.4961 39.4121 13.4336 39.1113 13.4336C38.8145 13.4336 38.5527 13.4961 38.3262 13.6211C38.1035 13.7461 37.916 13.918 37.7637 14.1367C37.6152 14.3516 37.5039 14.5996 37.4297 14.8809C37.3555 15.1582 37.3184 15.4531 37.3184 15.7656Z" fill="#333333"/>
<path d="M0 0V-1H-1V0H0ZM55 0H56V-1H55V0ZM55 30V31H56V30H55ZM0 30H-1V31H0V30ZM0 1H55V-1H0V1ZM54 0V30H56V0H54ZM55 29H0V31H55V29ZM1 30V0H-1V30H1Z" fill="#333D58"/>
</svg>
