<svg width="270" height="16" viewBox="0 0 270 16" fill="none" xmlns="http://www.w3.org/2000/svg">
<rect width="16" height="16" fill="#1A2C50"/>
<path d="M35.1836 4.89258H32.5703V12H30.8125V4.89258H28.2344V3.46875H35.1836V4.89258ZM38.4707 12.1172C37.541 12.1172 36.7832 11.832 36.1973 11.2617C35.6152 10.6914 35.3242 9.93164 35.3242 8.98242V8.81836C35.3242 8.18164 35.4473 7.61328 35.6934 7.11328C35.9395 6.60938 36.2871 6.22266 36.7363 5.95312C37.1895 5.67969 37.7051 5.54297 38.2832 5.54297C39.1504 5.54297 39.832 5.81641 40.3281 6.36328C40.8281 6.91016 41.0781 7.68555 41.0781 8.68945V9.38086H37.041C37.0957 9.79492 37.2598 10.127 37.5332 10.377C37.8105 10.627 38.1602 10.752 38.582 10.752C39.2344 10.752 39.7441 10.5156 40.1113 10.043L40.9434 10.9746C40.6895 11.334 40.3457 11.6152 39.9121 11.8184C39.4785 12.0176 38.998 12.1172 38.4707 12.1172ZM38.2773 6.91406C37.9414 6.91406 37.668 7.02734 37.457 7.25391C37.25 7.48047 37.1172 7.80469 37.0586 8.22656H39.4141V8.0918C39.4062 7.7168 39.3047 7.42773 39.1094 7.22461C38.9141 7.01758 38.6367 6.91406 38.2773 6.91406ZM45.6074 7.24805C45.377 7.2168 45.1738 7.20117 44.998 7.20117C44.3574 7.20117 43.9375 7.41797 43.7383 7.85156V12H42.0449V5.66016H43.6445L43.6914 6.41602C44.0312 5.83398 44.502 5.54297 45.1035 5.54297C45.291 5.54297 45.4668 5.56836 45.6309 5.61914L45.6074 7.24805ZM48.2148 12H46.5156V5.66016H48.2148V12ZM46.416 4.01953C46.416 3.76563 46.5 3.55664 46.668 3.39258C46.8398 3.22852 47.0723 3.14648 47.3652 3.14648C47.6543 3.14648 47.8848 3.22852 48.0566 3.39258C48.2285 3.55664 48.3145 3.76563 48.3145 4.01953C48.3145 4.27734 48.2266 4.48828 48.0508 4.65234C47.8789 4.81641 47.6504 4.89844 47.3652 4.89844C47.0801 4.89844 46.8496 4.81641 46.6738 4.65234C46.502 4.48828 46.416 4.27734 46.416 4.01953ZM53.0488 10.248C53.0488 10.041 52.9453 9.87891 52.7383 9.76172C52.5352 9.64062 52.207 9.5332 51.7539 9.43945C50.2461 9.12305 49.4922 8.48242 49.4922 7.51758C49.4922 6.95508 49.7246 6.48633 50.1895 6.11133C50.6582 5.73242 51.2695 5.54297 52.0234 5.54297C52.8281 5.54297 53.4707 5.73242 53.9512 6.11133C54.4355 6.49023 54.6777 6.98242 54.6777 7.58789H52.9844C52.9844 7.3457 52.9062 7.14648 52.75 6.99023C52.5938 6.83008 52.3496 6.75 52.0176 6.75C51.7324 6.75 51.5117 6.81445 51.3555 6.94336C51.1992 7.07227 51.1211 7.23633 51.1211 7.43555C51.1211 7.62305 51.209 7.77539 51.3848 7.89258C51.5645 8.00586 51.8652 8.10547 52.2871 8.19141C52.709 8.27344 53.0645 8.36719 53.3535 8.47266C54.248 8.80078 54.6953 9.36914 54.6953 10.1777C54.6953 10.7559 54.4473 11.2246 53.9512 11.584C53.4551 11.9395 52.8145 12.1172 52.0293 12.1172C51.498 12.1172 51.0254 12.0234 50.6113 11.8359C50.2012 11.6445 49.8789 11.3848 49.6445 11.0566C49.4102 10.7246 49.293 10.3672 49.293 9.98438H50.8984C50.9141 10.2852 51.0254 10.5156 51.2324 10.6758C51.4395 10.8359 51.7168 10.916 52.0645 10.916C52.3887 10.916 52.6328 10.8555 52.7969 10.7344C52.9648 10.6094 53.0488 10.4473 53.0488 10.248ZM57.5781 12H55.8789V5.66016H57.5781V12ZM55.7793 4.01953C55.7793 3.76563 55.8633 3.55664 56.0312 3.39258C56.2031 3.22852 56.4355 3.14648 56.7285 3.14648C57.0176 3.14648 57.248 3.22852 57.4199 3.39258C57.5918 3.55664 57.6777 3.76563 57.6777 4.01953C57.6777 4.27734 57.5898 4.48828 57.4141 4.65234C57.2422 4.81641 57.0137 4.89844 56.7285 4.89844C56.4434 4.89844 56.2129 4.81641 56.0371 4.65234C55.8652 4.48828 55.7793 4.27734 55.7793 4.01953Z" fill="#333333"/>
<rect x="83.5" y="0.5" width="15" height="15" fill="white" stroke="#9DA8BE"/>
<path d="M114.434 8.57812L113.52 9.5625V12H111.762V3.46875H113.52V7.33594L114.293 6.27539L116.467 3.46875H118.629L115.6 7.25977L118.717 12H116.625L114.434 8.57812ZM122.924 11.3555C122.506 11.8633 121.928 12.1172 121.189 12.1172C120.51 12.1172 119.99 11.9219 119.631 11.5312C119.275 11.1406 119.094 10.5684 119.086 9.81445V5.66016H120.779V9.75586C120.779 10.416 121.08 10.7461 121.682 10.7461C122.256 10.7461 122.65 10.5469 122.865 10.1484V5.66016H124.564V12H122.971L122.924 11.3555ZM129.404 7.24805C129.174 7.2168 128.971 7.20117 128.795 7.20117C128.154 7.20117 127.734 7.41797 127.535 7.85156V12H125.842V5.66016H127.441L127.488 6.41602C127.828 5.83398 128.299 5.54297 128.9 5.54297C129.088 5.54297 129.264 5.56836 129.428 5.61914L129.404 7.24805ZM133.658 10.248C133.658 10.041 133.555 9.87891 133.348 9.76172C133.145 9.64062 132.816 9.5332 132.363 9.43945C130.855 9.12305 130.102 8.48242 130.102 7.51758C130.102 6.95508 130.334 6.48633 130.799 6.11133C131.268 5.73242 131.879 5.54297 132.633 5.54297C133.438 5.54297 134.08 5.73242 134.561 6.11133C135.045 6.49023 135.287 6.98242 135.287 7.58789H133.594C133.594 7.3457 133.516 7.14648 133.359 6.99023C133.203 6.83008 132.959 6.75 132.627 6.75C132.342 6.75 132.121 6.81445 131.965 6.94336C131.809 7.07227 131.73 7.23633 131.73 7.43555C131.73 7.62305 131.818 7.77539 131.994 7.89258C132.174 8.00586 132.475 8.10547 132.896 8.19141C133.318 8.27344 133.674 8.36719 133.963 8.47266C134.857 8.80078 135.305 9.36914 135.305 10.1777C135.305 10.7559 135.057 11.2246 134.561 11.584C134.064 11.9395 133.424 12.1172 132.639 12.1172C132.107 12.1172 131.635 12.0234 131.221 11.8359C130.811 11.6445 130.488 11.3848 130.254 11.0566C130.02 10.7246 129.902 10.3672 129.902 9.98438H131.508C131.523 10.2852 131.635 10.5156 131.842 10.6758C132.049 10.8359 132.326 10.916 132.674 10.916C132.998 10.916 133.242 10.8555 133.406 10.7344C133.574 10.6094 133.658 10.4473 133.658 10.248ZM138.188 12H136.488V5.66016H138.188V12ZM136.389 4.01953C136.389 3.76563 136.473 3.55664 136.641 3.39258C136.812 3.22852 137.045 3.14648 137.338 3.14648C137.627 3.14648 137.857 3.22852 138.029 3.39258C138.201 3.55664 138.287 3.76563 138.287 4.01953C138.287 4.27734 138.199 4.48828 138.023 4.65234C137.852 4.81641 137.623 4.89844 137.338 4.89844C137.053 4.89844 136.822 4.81641 136.646 4.65234C136.475 4.48828 136.389 4.27734 136.389 4.01953ZM145.359 8.57812L144.445 9.5625V12H142.688V3.46875H144.445V7.33594L145.219 6.27539L147.393 3.46875H149.555L146.525 7.25977L149.643 12H147.551L145.359 8.57812ZM149.766 8.77148C149.766 8.14258 149.887 7.58203 150.129 7.08984C150.371 6.59766 150.719 6.2168 151.172 5.94727C151.629 5.67773 152.158 5.54297 152.76 5.54297C153.615 5.54297 154.312 5.80469 154.852 6.32812C155.395 6.85156 155.697 7.5625 155.76 8.46094L155.771 8.89453C155.771 9.86719 155.5 10.6484 154.957 11.2383C154.414 11.8242 153.686 12.1172 152.771 12.1172C151.857 12.1172 151.127 11.8242 150.58 11.2383C150.037 10.6523 149.766 9.85547 149.766 8.84766V8.77148ZM151.459 8.89453C151.459 9.49609 151.572 9.95703 151.799 10.2773C152.025 10.5938 152.35 10.752 152.771 10.752C153.182 10.752 153.502 10.5957 153.732 10.2832C153.963 9.9668 154.078 9.46289 154.078 8.77148C154.078 8.18164 153.963 7.72461 153.732 7.40039C153.502 7.07617 153.178 6.91406 152.76 6.91406C152.346 6.91406 152.025 7.07617 151.799 7.40039C151.572 7.7207 151.459 8.21875 151.459 8.89453ZM160.248 10.248C160.248 10.041 160.145 9.87891 159.938 9.76172C159.734 9.64062 159.406 9.5332 158.953 9.43945C157.445 9.12305 156.691 8.48242 156.691 7.51758C156.691 6.95508 156.924 6.48633 157.389 6.11133C157.857 5.73242 158.469 5.54297 159.223 5.54297C160.027 5.54297 160.67 5.73242 161.15 6.11133C161.635 6.49023 161.877 6.98242 161.877 7.58789H160.184C160.184 7.3457 160.105 7.14648 159.949 6.99023C159.793 6.83008 159.549 6.75 159.217 6.75C158.932 6.75 158.711 6.81445 158.555 6.94336C158.398 7.07227 158.32 7.23633 158.32 7.43555C158.32 7.62305 158.408 7.77539 158.584 7.89258C158.764 8.00586 159.064 8.10547 159.486 8.19141C159.908 8.27344 160.264 8.36719 160.553 8.47266C161.447 8.80078 161.895 9.36914 161.895 10.1777C161.895 10.7559 161.646 11.2246 161.15 11.584C160.654 11.9395 160.014 12.1172 159.229 12.1172C158.697 12.1172 158.225 12.0234 157.811 11.8359C157.4 11.6445 157.078 11.3848 156.844 11.0566C156.609 10.7246 156.492 10.3672 156.492 9.98438H158.098C158.113 10.2852 158.225 10.5156 158.432 10.6758C158.639 10.8359 158.916 10.916 159.264 10.916C159.588 10.916 159.832 10.8555 159.996 10.7344C160.164 10.6094 160.248 10.4473 160.248 10.248ZM162.727 8.77148C162.727 8.14258 162.848 7.58203 163.09 7.08984C163.332 6.59766 163.68 6.2168 164.133 5.94727C164.59 5.67773 165.119 5.54297 165.721 5.54297C166.576 5.54297 167.273 5.80469 167.812 6.32812C168.355 6.85156 168.658 7.5625 168.721 8.46094L168.732 8.89453C168.732 9.86719 168.461 10.6484 167.918 11.2383C167.375 11.8242 166.646 12.1172 165.732 12.1172C164.818 12.1172 164.088 11.8242 163.541 11.2383C162.998 10.6523 162.727 9.85547 162.727 8.84766V8.77148ZM164.42 8.89453C164.42 9.49609 164.533 9.95703 164.76 10.2773C164.986 10.5938 165.311 10.752 165.732 10.752C166.143 10.752 166.463 10.5957 166.693 10.2832C166.924 9.9668 167.039 9.46289 167.039 8.77148C167.039 8.18164 166.924 7.72461 166.693 7.40039C166.463 7.07617 166.139 6.91406 165.721 6.91406C165.307 6.91406 164.986 7.07617 164.76 7.40039C164.533 7.7207 164.42 8.21875 164.42 8.89453ZM171.334 5.66016L171.387 6.39258C171.84 5.82617 172.447 5.54297 173.209 5.54297C173.881 5.54297 174.381 5.74023 174.709 6.13477C175.037 6.5293 175.205 7.11914 175.213 7.9043V12H173.52V7.94531C173.52 7.58594 173.441 7.32617 173.285 7.16602C173.129 7.00195 172.869 6.91992 172.506 6.91992C172.029 6.91992 171.672 7.12305 171.434 7.5293V12H169.74V5.66016H171.334ZM176.256 8.7832C176.256 7.81055 176.486 7.02734 176.947 6.43359C177.412 5.83984 178.037 5.54297 178.822 5.54297C179.518 5.54297 180.059 5.78125 180.445 6.25781L180.516 5.66016H182.051V11.7891C182.051 12.3438 181.924 12.8262 181.67 13.2363C181.42 13.6465 181.066 13.959 180.609 14.1738C180.152 14.3887 179.617 14.4961 179.004 14.4961C178.539 14.4961 178.086 14.4023 177.645 14.2148C177.203 14.0312 176.869 13.793 176.643 13.5L177.393 12.4688C177.814 12.9414 178.326 13.1777 178.928 13.1777C179.377 13.1777 179.727 13.0566 179.977 12.8145C180.227 12.5762 180.352 12.2363 180.352 11.7949V11.4551C179.961 11.8965 179.447 12.1172 178.811 12.1172C178.049 12.1172 177.432 11.8203 176.959 11.2266C176.49 10.6289 176.256 9.83789 176.256 8.85352V8.7832ZM177.949 8.90625C177.949 9.48047 178.064 9.93164 178.295 10.2598C178.525 10.584 178.842 10.7461 179.244 10.7461C179.76 10.7461 180.129 10.5527 180.352 10.166V7.5C180.125 7.11328 179.76 6.91992 179.256 6.91992C178.85 6.91992 178.529 7.08594 178.295 7.41797C178.064 7.75 177.949 8.24609 177.949 8.90625Z" fill="#333333"/>
<rect x="207" width="16" height="16" fill="#118EEA"/>
<path d="M235.762 12V3.46875H238.387C239.137 3.46875 239.807 3.63867 240.396 3.97852C240.99 4.31445 241.453 4.79492 241.785 5.41992C242.117 6.04102 242.283 6.74805 242.283 7.54102V7.93359C242.283 8.72656 242.119 9.43164 241.791 10.0488C241.467 10.666 241.008 11.1445 240.414 11.4844C239.82 11.8242 239.15 11.9961 238.404 12H235.762ZM237.52 4.89258V10.5879H238.369C239.057 10.5879 239.582 10.3633 239.945 9.91406C240.309 9.46484 240.494 8.82227 240.502 7.98633V7.53516C240.502 6.66797 240.322 6.01172 239.963 5.56641C239.604 5.11719 239.078 4.89258 238.387 4.89258H237.52ZM245.242 12H243.543V5.66016H245.242V12ZM243.443 4.01953C243.443 3.76563 243.527 3.55664 243.695 3.39258C243.867 3.22852 244.1 3.14648 244.393 3.14648C244.682 3.14648 244.912 3.22852 245.084 3.39258C245.256 3.55664 245.342 3.76563 245.342 4.01953C245.342 4.27734 245.254 4.48828 245.078 4.65234C244.906 4.81641 244.678 4.89844 244.393 4.89844C244.107 4.89844 243.877 4.81641 243.701 4.65234C243.529 4.48828 243.443 4.27734 243.443 4.01953ZM252.35 8.88867C252.35 9.86523 252.127 10.6484 251.682 11.2383C251.24 11.8242 250.643 12.1172 249.889 12.1172C249.248 12.1172 248.73 11.8945 248.336 11.4492V14.4375H246.643V5.66016H248.213L248.271 6.28125C248.682 5.78906 249.217 5.54297 249.877 5.54297C250.658 5.54297 251.266 5.83203 251.699 6.41016C252.133 6.98828 252.35 7.78516 252.35 8.80078V8.88867ZM250.656 8.76562C250.656 8.17578 250.551 7.7207 250.34 7.40039C250.133 7.08008 249.83 6.91992 249.432 6.91992C248.9 6.91992 248.535 7.12305 248.336 7.5293V10.125C248.543 10.543 248.912 10.752 249.443 10.752C250.252 10.752 250.656 10.0898 250.656 8.76562ZM255.191 12H253.492V5.66016H255.191V12ZM253.393 4.01953C253.393 3.76563 253.477 3.55664 253.645 3.39258C253.816 3.22852 254.049 3.14648 254.342 3.14648C254.631 3.14648 254.861 3.22852 255.033 3.39258C255.205 3.55664 255.291 3.76563 255.291 4.01953C255.291 4.27734 255.203 4.48828 255.027 4.65234C254.855 4.81641 254.627 4.89844 254.342 4.89844C254.057 4.89844 253.826 4.81641 253.65 4.65234C253.479 4.48828 253.393 4.27734 253.393 4.01953ZM258.379 12H256.68V3H258.379V12ZM261.566 12H259.867V5.66016H261.566V12ZM259.768 4.01953C259.768 3.76563 259.852 3.55664 260.02 3.39258C260.191 3.22852 260.424 3.14648 260.717 3.14648C261.006 3.14648 261.236 3.22852 261.408 3.39258C261.58 3.55664 261.666 3.76563 261.666 4.01953C261.666 4.27734 261.578 4.48828 261.402 4.65234C261.23 4.81641 261.002 4.89844 260.717 4.89844C260.432 4.89844 260.201 4.81641 260.025 4.65234C259.854 4.48828 259.768 4.27734 259.768 4.01953ZM264.619 6.35156C265.068 5.8125 265.633 5.54297 266.312 5.54297C267.688 5.54297 268.385 6.3418 268.404 7.93945V12H266.711V7.98633C266.711 7.62305 266.633 7.35547 266.477 7.18359C266.32 7.00781 266.061 6.91992 265.697 6.91992C265.201 6.91992 264.842 7.11133 264.619 7.49414V12H262.926V3H264.619V6.35156Z" fill="#333333"/>
</svg>
