<svg width="77" height="40" viewBox="0 0 77 40" fill="none" xmlns="http://www.w3.org/2000/svg">
<path d="M25.4824 15.0264V25H23.5137V17.2959L21.1484 18.0479V16.4961L25.2705 15.0264H25.4824ZM30.5752 20.4678L29.0029 20.0918L29.5703 15.0469H35.1621V16.6396H31.1904L30.9443 18.8477C31.0765 18.7702 31.277 18.6882 31.5459 18.6016C31.8148 18.5104 32.1156 18.4648 32.4482 18.4648C32.9313 18.4648 33.3597 18.54 33.7334 18.6904C34.1071 18.8408 34.4238 19.0596 34.6836 19.3467C34.9479 19.6338 35.1484 19.9847 35.2852 20.3994C35.4219 20.8141 35.4902 21.2835 35.4902 21.8076C35.4902 22.2497 35.4219 22.6712 35.2852 23.0723C35.1484 23.4688 34.9411 23.8242 34.6631 24.1387C34.3851 24.4486 34.0365 24.6924 33.6172 24.8701C33.1979 25.0479 32.7012 25.1367 32.127 25.1367C31.6986 25.1367 31.2839 25.0729 30.8828 24.9453C30.4863 24.8177 30.1286 24.6286 29.8096 24.3779C29.4951 24.1273 29.2422 23.8242 29.0508 23.4688C28.8639 23.1087 28.766 22.6986 28.7568 22.2383H30.7119C30.7393 22.5208 30.8122 22.7646 30.9307 22.9697C31.0537 23.1702 31.2155 23.3252 31.416 23.4346C31.6165 23.5439 31.8512 23.5986 32.1201 23.5986C32.3708 23.5986 32.585 23.5508 32.7627 23.4551C32.9404 23.3594 33.084 23.2272 33.1934 23.0586C33.3027 22.8854 33.3825 22.6849 33.4326 22.457C33.4873 22.2246 33.5146 21.974 33.5146 21.7051C33.5146 21.4362 33.4827 21.1924 33.4189 20.9736C33.3551 20.7549 33.2572 20.5658 33.125 20.4062C32.9928 20.2467 32.8242 20.1237 32.6191 20.0371C32.4186 19.9505 32.1839 19.9072 31.915 19.9072C31.5505 19.9072 31.2679 19.9642 31.0674 20.0781C30.8714 20.1921 30.7074 20.3219 30.5752 20.4678ZM36.9189 24.0498C36.9189 23.7581 37.0192 23.5143 37.2197 23.3184C37.4248 23.1224 37.696 23.0244 38.0332 23.0244C38.3704 23.0244 38.6393 23.1224 38.8398 23.3184C39.0449 23.5143 39.1475 23.7581 39.1475 24.0498C39.1475 24.3415 39.0449 24.5853 38.8398 24.7812C38.6393 24.9772 38.3704 25.0752 38.0332 25.0752C37.696 25.0752 37.4248 24.9772 37.2197 24.7812C37.0192 24.5853 36.9189 24.3415 36.9189 24.0498ZM36.9189 18.4102C36.9189 18.1185 37.0192 17.8747 37.2197 17.6787C37.4248 17.4827 37.696 17.3848 38.0332 17.3848C38.3704 17.3848 38.6393 17.4827 38.8398 17.6787C39.0449 17.8747 39.1475 18.1185 39.1475 18.4102C39.1475 18.7018 39.0449 18.9456 38.8398 19.1416C38.6393 19.3376 38.3704 19.4355 38.0332 19.4355C37.696 19.4355 37.4248 19.3376 37.2197 19.1416C37.0192 18.9456 36.9189 18.7018 36.9189 18.4102ZM47.6855 21.2812V22.8262H40.5146L40.4189 21.6299L44.5684 15.0469H46.1338L44.4385 17.8838L42.374 21.2812H47.6855ZM46.5576 15.0469V25H44.5889V15.0469H46.5576ZM55.4512 19.1484V20.8711C55.4512 21.6185 55.3714 22.2633 55.2119 22.8057C55.0524 23.3434 54.8223 23.7855 54.5215 24.1318C54.2253 24.4736 53.8721 24.7266 53.4619 24.8906C53.0518 25.0547 52.596 25.1367 52.0947 25.1367C51.6937 25.1367 51.32 25.0866 50.9736 24.9863C50.6273 24.8815 50.3151 24.7197 50.0371 24.501C49.7637 24.2822 49.5267 24.0065 49.3262 23.6738C49.1302 23.3366 48.9798 22.9355 48.875 22.4707C48.7702 22.0059 48.7178 21.4727 48.7178 20.8711V19.1484C48.7178 18.401 48.7975 17.7607 48.957 17.2275C49.1211 16.6898 49.3512 16.25 49.6475 15.9082C49.9482 15.5664 50.3037 15.3158 50.7139 15.1562C51.124 14.9922 51.5798 14.9102 52.0811 14.9102C52.4821 14.9102 52.8535 14.9626 53.1953 15.0674C53.5417 15.1676 53.8538 15.3249 54.1318 15.5391C54.4098 15.7533 54.6468 16.029 54.8428 16.3662C55.0387 16.6989 55.1891 17.0977 55.2939 17.5625C55.3988 18.0228 55.4512 18.5514 55.4512 19.1484ZM53.4756 21.1309V18.8818C53.4756 18.5218 53.4551 18.2074 53.4141 17.9385C53.3776 17.6696 53.3206 17.4417 53.2432 17.2549C53.1657 17.0635 53.07 16.9085 52.9561 16.79C52.8421 16.6715 52.7122 16.585 52.5664 16.5303C52.4206 16.4756 52.2588 16.4482 52.0811 16.4482C51.8577 16.4482 51.6595 16.4915 51.4863 16.5781C51.3177 16.6647 51.1742 16.8037 51.0557 16.9951C50.9372 17.182 50.846 17.4326 50.7822 17.7471C50.723 18.057 50.6934 18.4352 50.6934 18.8818V21.1309C50.6934 21.4909 50.7116 21.8076 50.748 22.0811C50.7891 22.3545 50.8483 22.5892 50.9258 22.7852C51.0078 22.9766 51.1035 23.1338 51.2129 23.2568C51.3268 23.3753 51.4567 23.4619 51.6025 23.5166C51.7529 23.5713 51.917 23.5986 52.0947 23.5986C52.3135 23.5986 52.5072 23.5553 52.6758 23.4688C52.849 23.3776 52.9948 23.2363 53.1133 23.0449C53.2363 22.849 53.3275 22.5938 53.3867 22.2793C53.446 21.9648 53.4756 21.582 53.4756 21.1309Z" fill="#333333"/>
<path d="M4 1H73V-1H4V1ZM76 4V36H78V4H76ZM73 39H4V41H73V39ZM1 36V4H-1V36H1ZM4 39C2.34315 39 1 37.6569 1 36H-1C-1 38.7614 1.23858 41 4 41V39ZM76 36C76 37.6569 74.6569 39 73 39V41C75.7614 41 78 38.7614 78 36H76ZM73 1C74.6569 1 76 2.34315 76 4H78C78 1.23858 75.7614 -1 73 -1V1ZM4 -1C1.23858 -1 -1 1.23858 -1 4H1C1 2.34315 2.34315 1 4 1V-1Z" fill="#9DA8BE"/>
</svg>
