<svg width="77" height="40" viewBox="0 0 77 40" fill="none" xmlns="http://www.w3.org/2000/svg">
<path d="M25.4824 15.0264V25H23.5137V17.2959L21.1484 18.0479V16.4961L25.2705 15.0264H25.4824ZM35.4834 15.0469V16.1064L31.6348 25H29.5566L33.4053 16.585H28.4492V15.0469H35.4834ZM36.9189 24.0498C36.9189 23.7581 37.0192 23.5143 37.2197 23.3184C37.4248 23.1224 37.696 23.0244 38.0332 23.0244C38.3704 23.0244 38.6393 23.1224 38.8398 23.3184C39.0449 23.5143 39.1475 23.7581 39.1475 24.0498C39.1475 24.3415 39.0449 24.5853 38.8398 24.7812C38.6393 24.9772 38.3704 25.0752 38.0332 25.0752C37.696 25.0752 37.4248 24.9772 37.2197 24.7812C37.0192 24.5853 36.9189 24.3415 36.9189 24.0498ZM36.9189 18.4102C36.9189 18.1185 37.0192 17.8747 37.2197 17.6787C37.4248 17.4827 37.696 17.3848 38.0332 17.3848C38.3704 17.3848 38.6393 17.4827 38.8398 17.6787C39.0449 17.8747 39.1475 18.1185 39.1475 18.4102C39.1475 18.7018 39.0449 18.9456 38.8398 19.1416C38.6393 19.3376 38.3704 19.4355 38.0332 19.4355C37.696 19.4355 37.4248 19.3376 37.2197 19.1416C37.0192 18.9456 36.9189 18.7018 36.9189 18.4102ZM45.5117 15.0264V25H43.543V17.2959L41.1777 18.0479V16.4961L45.2998 15.0264H45.5117ZM50.6045 20.4678L49.0322 20.0918L49.5996 15.0469H55.1914V16.6396H51.2197L50.9736 18.8477C51.1058 18.7702 51.3063 18.6882 51.5752 18.6016C51.8441 18.5104 52.1449 18.4648 52.4775 18.4648C52.9606 18.4648 53.389 18.54 53.7627 18.6904C54.1364 18.8408 54.4531 19.0596 54.7129 19.3467C54.9772 19.6338 55.1777 19.9847 55.3145 20.3994C55.4512 20.8141 55.5195 21.2835 55.5195 21.8076C55.5195 22.2497 55.4512 22.6712 55.3145 23.0723C55.1777 23.4688 54.9704 23.8242 54.6924 24.1387C54.4144 24.4486 54.0658 24.6924 53.6465 24.8701C53.2272 25.0479 52.7305 25.1367 52.1562 25.1367C51.7279 25.1367 51.3132 25.0729 50.9121 24.9453C50.5156 24.8177 50.1579 24.6286 49.8389 24.3779C49.5244 24.1273 49.2715 23.8242 49.0801 23.4688C48.8932 23.1087 48.7952 22.6986 48.7861 22.2383H50.7412C50.7686 22.5208 50.8415 22.7646 50.96 22.9697C51.083 23.1702 51.2448 23.3252 51.4453 23.4346C51.6458 23.5439 51.8805 23.5986 52.1494 23.5986C52.4001 23.5986 52.6143 23.5508 52.792 23.4551C52.9697 23.3594 53.1133 23.2272 53.2227 23.0586C53.332 22.8854 53.4118 22.6849 53.4619 22.457C53.5166 22.2246 53.5439 21.974 53.5439 21.7051C53.5439 21.4362 53.512 21.1924 53.4482 20.9736C53.3844 20.7549 53.2865 20.5658 53.1543 20.4062C53.0221 20.2467 52.8535 20.1237 52.6484 20.0371C52.4479 19.9505 52.2132 19.9072 51.9443 19.9072C51.5798 19.9072 51.2972 19.9642 51.0967 20.0781C50.9007 20.1921 50.7367 20.3219 50.6045 20.4678Z" fill="#333333"/>
<path d="M4 1H73V-1H4V1ZM76 4V36H78V4H76ZM73 39H4V41H73V39ZM1 36V4H-1V36H1ZM4 39C2.34315 39 1 37.6569 1 36H-1C-1 38.7614 1.23858 41 4 41V39ZM76 36C76 37.6569 74.6569 39 73 39V41C75.7614 41 78 38.7614 78 36H76ZM73 1C74.6569 1 76 2.34315 76 4H78C78 1.23858 75.7614 -1 73 -1V1ZM4 -1C1.23858 -1 -1 1.23858 -1 4H1C1 2.34315 2.34315 1 4 1V-1Z" fill="#9DA8BE"/>
</svg>
