<svg width="77" height="40" viewBox="0 0 77 40" fill="none" xmlns="http://www.w3.org/2000/svg">
<path d="M25.4824 15.0264V25H23.5137V17.2959L21.1484 18.0479V16.4961L25.2705 15.0264H25.4824ZM35.4287 22.2725C35.4287 22.8968 35.2829 23.4232 34.9912 23.8516C34.6995 24.2754 34.2985 24.5967 33.7881 24.8154C33.2822 25.0296 32.708 25.1367 32.0654 25.1367C31.4229 25.1367 30.8464 25.0296 30.3359 24.8154C29.8255 24.5967 29.4222 24.2754 29.126 23.8516C28.8298 23.4232 28.6816 22.8968 28.6816 22.2725C28.6816 21.8532 28.766 21.4749 28.9346 21.1377C29.1032 20.7959 29.3379 20.5042 29.6387 20.2627C29.944 20.0166 30.3018 19.8298 30.7119 19.7021C31.1221 19.57 31.5687 19.5039 32.0518 19.5039C32.6989 19.5039 33.2777 19.6178 33.7881 19.8457C34.2985 20.0736 34.6995 20.3949 34.9912 20.8096C35.2829 21.2243 35.4287 21.7119 35.4287 22.2725ZM33.4463 22.1426C33.4463 21.8372 33.387 21.5752 33.2686 21.3564C33.1546 21.1331 32.9928 20.9622 32.7832 20.8438C32.5736 20.7253 32.3298 20.666 32.0518 20.666C31.7738 20.666 31.5299 20.7253 31.3203 20.8438C31.1107 20.9622 30.9466 21.1331 30.8281 21.3564C30.7142 21.5752 30.6572 21.8372 30.6572 22.1426C30.6572 22.4434 30.7142 22.7031 30.8281 22.9219C30.9466 23.1406 31.1107 23.3092 31.3203 23.4277C31.5345 23.5417 31.7829 23.5986 32.0654 23.5986C32.348 23.5986 32.5918 23.5417 32.7969 23.4277C33.0065 23.3092 33.166 23.1406 33.2754 22.9219C33.3893 22.7031 33.4463 22.4434 33.4463 22.1426ZM35.2168 17.6855C35.2168 18.1914 35.0824 18.6403 34.8135 19.0322C34.5446 19.4196 34.1709 19.7227 33.6924 19.9414C33.2184 20.1602 32.6761 20.2695 32.0654 20.2695C31.4502 20.2695 30.9033 20.1602 30.4248 19.9414C29.9463 19.7227 29.5726 19.4196 29.3037 19.0322C29.0348 18.6403 28.9004 18.1914 28.9004 17.6855C28.9004 17.084 29.0348 16.5781 29.3037 16.168C29.5771 15.7533 29.9508 15.4388 30.4248 15.2246C30.9033 15.0104 31.4456 14.9033 32.0518 14.9033C32.667 14.9033 33.2116 15.0104 33.6855 15.2246C34.1641 15.4388 34.5378 15.7533 34.8066 16.168C35.0801 16.5781 35.2168 17.084 35.2168 17.6855ZM33.248 17.7744C33.248 17.5055 33.2002 17.2731 33.1045 17.0771C33.0088 16.8766 32.8721 16.7217 32.6943 16.6123C32.5212 16.5029 32.307 16.4482 32.0518 16.4482C31.8057 16.4482 31.5938 16.5007 31.416 16.6055C31.2428 16.7103 31.1084 16.863 31.0127 17.0635C30.9215 17.2594 30.876 17.4964 30.876 17.7744C30.876 18.0433 30.9215 18.2803 31.0127 18.4854C31.1084 18.6859 31.2451 18.8431 31.4229 18.957C31.6006 19.071 31.8148 19.1279 32.0654 19.1279C32.3161 19.1279 32.528 19.071 32.7012 18.957C32.8789 18.8431 33.0133 18.6859 33.1045 18.4854C33.2002 18.2803 33.248 18.0433 33.248 17.7744ZM36.9189 24.0498C36.9189 23.7581 37.0192 23.5143 37.2197 23.3184C37.4248 23.1224 37.696 23.0244 38.0332 23.0244C38.3704 23.0244 38.6393 23.1224 38.8398 23.3184C39.0449 23.5143 39.1475 23.7581 39.1475 24.0498C39.1475 24.3415 39.0449 24.5853 38.8398 24.7812C38.6393 24.9772 38.3704 25.0752 38.0332 25.0752C37.696 25.0752 37.4248 24.9772 37.2197 24.7812C37.0192 24.5853 36.9189 24.3415 36.9189 24.0498ZM36.9189 18.4102C36.9189 18.1185 37.0192 17.8747 37.2197 17.6787C37.4248 17.4827 37.696 17.3848 38.0332 17.3848C38.3704 17.3848 38.6393 17.4827 38.8398 17.6787C39.0449 17.8747 39.1475 18.1185 39.1475 18.4102C39.1475 18.7018 39.0449 18.9456 38.8398 19.1416C38.6393 19.3376 38.3704 19.4355 38.0332 19.4355C37.696 19.4355 37.4248 19.3376 37.2197 19.1416C37.0192 18.9456 36.9189 18.7018 36.9189 18.4102ZM45.5117 15.0264V25H43.543V17.2959L41.1777 18.0479V16.4961L45.2998 15.0264H45.5117ZM50.6045 20.4678L49.0322 20.0918L49.5996 15.0469H55.1914V16.6396H51.2197L50.9736 18.8477C51.1058 18.7702 51.3063 18.6882 51.5752 18.6016C51.8441 18.5104 52.1449 18.4648 52.4775 18.4648C52.9606 18.4648 53.389 18.54 53.7627 18.6904C54.1364 18.8408 54.4531 19.0596 54.7129 19.3467C54.9772 19.6338 55.1777 19.9847 55.3145 20.3994C55.4512 20.8141 55.5195 21.2835 55.5195 21.8076C55.5195 22.2497 55.4512 22.6712 55.3145 23.0723C55.1777 23.4688 54.9704 23.8242 54.6924 24.1387C54.4144 24.4486 54.0658 24.6924 53.6465 24.8701C53.2272 25.0479 52.7305 25.1367 52.1562 25.1367C51.7279 25.1367 51.3132 25.0729 50.9121 24.9453C50.5156 24.8177 50.1579 24.6286 49.8389 24.3779C49.5244 24.1273 49.2715 23.8242 49.0801 23.4688C48.8932 23.1087 48.7952 22.6986 48.7861 22.2383H50.7412C50.7686 22.5208 50.8415 22.7646 50.96 22.9697C51.083 23.1702 51.2448 23.3252 51.4453 23.4346C51.6458 23.5439 51.8805 23.5986 52.1494 23.5986C52.4001 23.5986 52.6143 23.5508 52.792 23.4551C52.9697 23.3594 53.1133 23.2272 53.2227 23.0586C53.332 22.8854 53.4118 22.6849 53.4619 22.457C53.5166 22.2246 53.5439 21.974 53.5439 21.7051C53.5439 21.4362 53.512 21.1924 53.4482 20.9736C53.3844 20.7549 53.2865 20.5658 53.1543 20.4062C53.0221 20.2467 52.8535 20.1237 52.6484 20.0371C52.4479 19.9505 52.2132 19.9072 51.9443 19.9072C51.5798 19.9072 51.2972 19.9642 51.0967 20.0781C50.9007 20.1921 50.7367 20.3219 50.6045 20.4678Z" fill="#333333"/>
<path d="M4 1H73V-1H4V1ZM76 4V36H78V4H76ZM73 39H4V41H73V39ZM1 36V4H-1V36H1ZM4 39C2.34315 39 1 37.6569 1 36H-1C-1 38.7614 1.23858 41 4 41V39ZM76 36C76 37.6569 74.6569 39 73 39V41C75.7614 41 78 38.7614 78 36H76ZM73 1C74.6569 1 76 2.34315 76 4H78C78 1.23858 75.7614 -1 73 -1V1ZM4 -1C1.23858 -1 -1 1.23858 -1 4H1C1 2.34315 2.34315 1 4 1V-1Z" fill="#9DA8BE"/>
</svg>
