<svg width="128" height="48" viewBox="0 0 128 48" fill="none" xmlns="http://www.w3.org/2000/svg">
<path d="M25.5156 24.5391H22.4766V23.3125H25.5156C26.1042 23.3125 26.5807 23.2188 26.9453 23.0312C27.3099 22.8438 27.5755 22.5833 27.7422 22.25C27.9141 21.9167 28 21.5365 28 21.1094C28 20.7188 27.9141 20.3516 27.7422 20.0078C27.5755 19.6641 27.3099 19.388 26.9453 19.1797C26.5807 18.9661 26.1042 18.8594 25.5156 18.8594H22.8281V29H21.3203V17.625H25.5156C26.375 17.625 27.1016 17.7734 27.6953 18.0703C28.2891 18.3672 28.7396 18.7786 29.0469 19.3047C29.3542 19.8255 29.5078 20.4219 29.5078 21.0938C29.5078 21.8229 29.3542 22.4453 29.0469 22.9609C28.7396 23.4766 28.2891 23.8698 27.6953 24.1406C27.1016 24.4062 26.375 24.5391 25.5156 24.5391ZM34.5938 29.1562C34.0052 29.1562 33.4714 29.0573 32.9922 28.8594C32.5182 28.6562 32.1094 28.3724 31.7656 28.0078C31.4271 27.6432 31.1667 27.2109 30.9844 26.7109C30.8021 26.2109 30.7109 25.6641 30.7109 25.0703V24.7422C30.7109 24.0547 30.8125 23.4427 31.0156 22.9062C31.2188 22.3646 31.4948 21.9062 31.8438 21.5312C32.1927 21.1562 32.5885 20.8724 33.0312 20.6797C33.474 20.487 33.9323 20.3906 34.4062 20.3906C35.0104 20.3906 35.5312 20.4948 35.9688 20.7031C36.4115 20.9115 36.7734 21.2031 37.0547 21.5781C37.3359 21.9479 37.5443 22.3854 37.6797 22.8906C37.8151 23.3906 37.8828 23.9375 37.8828 24.5312V25.1797H31.5703V24H36.4375V23.8906C36.4167 23.5156 36.3385 23.151 36.2031 22.7969C36.0729 22.4427 35.8646 22.151 35.5781 21.9219C35.2917 21.6927 34.901 21.5781 34.4062 21.5781C34.0781 21.5781 33.776 21.6484 33.5 21.7891C33.224 21.9245 32.987 22.1276 32.7891 22.3984C32.5911 22.6693 32.4375 23 32.3281 23.3906C32.2188 23.7812 32.1641 24.2318 32.1641 24.7422V25.0703C32.1641 25.4714 32.2188 25.849 32.3281 26.2031C32.4427 26.5521 32.6068 26.8594 32.8203 27.125C33.0391 27.3906 33.3021 27.599 33.6094 27.75C33.9219 27.901 34.276 27.9766 34.6719 27.9766C35.1823 27.9766 35.6146 27.8724 35.9688 27.6641C36.3229 27.4557 36.6328 27.1771 36.8984 26.8281L37.7734 27.5234C37.5911 27.7995 37.3594 28.0625 37.0781 28.3125C36.7969 28.5625 36.4505 28.7656 36.0391 28.9219C35.6328 29.0781 35.151 29.1562 34.5938 29.1562ZM43.1094 20.5469V21.6562H38.5391V20.5469H43.1094ZM40.0859 18.4922H41.5312V26.9062C41.5312 27.1927 41.5755 27.4089 41.6641 27.5547C41.7526 27.7005 41.8672 27.7969 42.0078 27.8438C42.1484 27.8906 42.2995 27.9141 42.4609 27.9141C42.5807 27.9141 42.7057 27.9036 42.8359 27.8828C42.9714 27.8568 43.0729 27.8359 43.1406 27.8203L43.1484 29C43.0339 29.0365 42.8828 29.0703 42.6953 29.1016C42.513 29.138 42.2917 29.1562 42.0312 29.1562C41.6771 29.1562 41.3516 29.0859 41.0547 28.9453C40.7578 28.8047 40.5208 28.5703 40.3438 28.2422C40.1719 27.9089 40.0859 27.4609 40.0859 26.8984V18.4922ZM48.3125 29.1562C47.724 29.1562 47.1901 29.0573 46.7109 28.8594C46.237 28.6562 45.8281 28.3724 45.4844 28.0078C45.1458 27.6432 44.8854 27.2109 44.7031 26.7109C44.5208 26.2109 44.4297 25.6641 44.4297 25.0703V24.7422C44.4297 24.0547 44.5312 23.4427 44.7344 22.9062C44.9375 22.3646 45.2135 21.9062 45.5625 21.5312C45.9115 21.1562 46.3073 20.8724 46.75 20.6797C47.1927 20.487 47.651 20.3906 48.125 20.3906C48.7292 20.3906 49.25 20.4948 49.6875 20.7031C50.1302 20.9115 50.4922 21.2031 50.7734 21.5781C51.0547 21.9479 51.263 22.3854 51.3984 22.8906C51.5339 23.3906 51.6016 23.9375 51.6016 24.5312V25.1797H45.2891V24H50.1562V23.8906C50.1354 23.5156 50.0573 23.151 49.9219 22.7969C49.7917 22.4427 49.5833 22.151 49.2969 21.9219C49.0104 21.6927 48.6198 21.5781 48.125 21.5781C47.7969 21.5781 47.4948 21.6484 47.2188 21.7891C46.9427 21.9245 46.7057 22.1276 46.5078 22.3984C46.3099 22.6693 46.1562 23 46.0469 23.3906C45.9375 23.7812 45.8828 24.2318 45.8828 24.7422V25.0703C45.8828 25.4714 45.9375 25.849 46.0469 26.2031C46.1615 26.5521 46.3255 26.8594 46.5391 27.125C46.7578 27.3906 47.0208 27.599 47.3281 27.75C47.6406 27.901 47.9948 27.9766 48.3906 27.9766C48.901 27.9766 49.3333 27.8724 49.6875 27.6641C50.0417 27.4557 50.3516 27.1771 50.6172 26.8281L51.4922 27.5234C51.3099 27.7995 51.0781 28.0625 50.7969 28.3125C50.5156 28.5625 50.1693 28.7656 49.7578 28.9219C49.3516 29.0781 48.8698 29.1562 48.3125 29.1562ZM54.7344 21.875V29H53.2891V20.5469H54.6953L54.7344 21.875ZM57.375 20.5L57.3672 21.8438C57.2474 21.8177 57.1328 21.8021 57.0234 21.7969C56.9193 21.7865 56.7995 21.7812 56.6641 21.7812C56.3307 21.7812 56.0365 21.8333 55.7812 21.9375C55.526 22.0417 55.3099 22.1875 55.1328 22.375C54.9557 22.5625 54.8151 22.7865 54.7109 23.0469C54.612 23.3021 54.5469 23.5833 54.5156 23.8906L54.1094 24.125C54.1094 23.6146 54.1589 23.1354 54.2578 22.6875C54.362 22.2396 54.5208 21.8438 54.7344 21.5C54.9479 21.151 55.2188 20.8802 55.5469 20.6875C55.8802 20.4896 56.276 20.3906 56.7344 20.3906C56.8385 20.3906 56.9583 20.4036 57.0938 20.4297C57.2292 20.4505 57.3229 20.474 57.375 20.5ZM67.0938 24.5391H64.0547V23.3125H67.0938C67.6823 23.3125 68.1589 23.2188 68.5234 23.0312C68.888 22.8438 69.1536 22.5833 69.3203 22.25C69.4922 21.9167 69.5781 21.5365 69.5781 21.1094C69.5781 20.7188 69.4922 20.3516 69.3203 20.0078C69.1536 19.6641 68.888 19.388 68.5234 19.1797C68.1589 18.9661 67.6823 18.8594 67.0938 18.8594H64.4062V29H62.8984V17.625H67.0938C67.9531 17.625 68.6797 17.7734 69.2734 18.0703C69.8672 18.3672 70.3177 18.7786 70.625 19.3047C70.9323 19.8255 71.0859 20.4219 71.0859 21.0938C71.0859 21.8229 70.9323 22.4453 70.625 22.9609C70.3177 23.4766 69.8672 23.8698 69.2734 24.1406C68.6797 24.4062 67.9531 24.5391 67.0938 24.5391ZM77.6641 27.5547V23.2031C77.6641 22.8698 77.5964 22.5807 77.4609 22.3359C77.3307 22.0859 77.1328 21.8932 76.8672 21.7578C76.6016 21.6224 76.2734 21.5547 75.8828 21.5547C75.5182 21.5547 75.1979 21.6172 74.9219 21.7422C74.651 21.8672 74.4375 22.0312 74.2812 22.2344C74.1302 22.4375 74.0547 22.6562 74.0547 22.8906H72.6094C72.6094 22.5885 72.6875 22.2891 72.8438 21.9922C73 21.6953 73.224 21.4271 73.5156 21.1875C73.8125 20.9427 74.1667 20.75 74.5781 20.6094C74.9948 20.4635 75.4583 20.3906 75.9688 20.3906C76.5833 20.3906 77.125 20.4948 77.5938 20.7031C78.0677 20.9115 78.4375 21.2266 78.7031 21.6484C78.974 22.0651 79.1094 22.5885 79.1094 23.2188V27.1562C79.1094 27.4375 79.1328 27.737 79.1797 28.0547C79.2318 28.3724 79.3073 28.6458 79.4062 28.875V29H77.8984C77.8255 28.8333 77.7682 28.612 77.7266 28.3359C77.6849 28.0547 77.6641 27.7943 77.6641 27.5547ZM77.9141 23.875L77.9297 24.8906H76.4688C76.0573 24.8906 75.6901 24.9245 75.3672 24.9922C75.0443 25.0547 74.7734 25.151 74.5547 25.2812C74.3359 25.4115 74.1693 25.5755 74.0547 25.7734C73.9401 25.9661 73.8828 26.1927 73.8828 26.4531C73.8828 26.7188 73.9427 26.9609 74.0625 27.1797C74.1823 27.3984 74.362 27.5729 74.6016 27.7031C74.8464 27.8281 75.1458 27.8906 75.5 27.8906C75.9427 27.8906 76.3333 27.7969 76.6719 27.6094C77.0104 27.4219 77.2786 27.1927 77.4766 26.9219C77.6797 26.651 77.7891 26.388 77.8047 26.1328L78.4219 26.8281C78.3854 27.0469 78.2865 27.2891 78.125 27.5547C77.9635 27.8203 77.7474 28.0755 77.4766 28.3203C77.2109 28.5599 76.8932 28.7604 76.5234 28.9219C76.1589 29.0781 75.7474 29.1562 75.2891 29.1562C74.7161 29.1562 74.2135 29.0443 73.7812 28.8203C73.3542 28.5964 73.0208 28.2969 72.7812 27.9219C72.5469 27.5417 72.4297 27.1172 72.4297 26.6484C72.4297 26.1953 72.5182 25.7969 72.6953 25.4531C72.8724 25.1042 73.1276 24.8151 73.4609 24.5859C73.7943 24.3516 74.1953 24.1745 74.6641 24.0547C75.1328 23.9349 75.6562 23.875 76.2344 23.875H77.9141ZM82.8281 21.875V29H81.3828V20.5469H82.7891L82.8281 21.875ZM85.4688 20.5L85.4609 21.8438C85.3411 21.8177 85.2266 21.8021 85.1172 21.7969C85.013 21.7865 84.8932 21.7812 84.7578 21.7812C84.4245 21.7812 84.1302 21.8333 83.875 21.9375C83.6198 22.0417 83.4036 22.1875 83.2266 22.375C83.0495 22.5625 82.9089 22.7865 82.8047 23.0469C82.7057 23.3021 82.6406 23.5833 82.6094 23.8906L82.2031 24.125C82.2031 23.6146 82.2526 23.1354 82.3516 22.6875C82.4557 22.2396 82.6146 21.8438 82.8281 21.5C83.0417 21.151 83.3125 20.8802 83.6406 20.6875C83.974 20.4896 84.3698 20.3906 84.8281 20.3906C84.9323 20.3906 85.0521 20.4036 85.1875 20.4297C85.3229 20.4505 85.4167 20.474 85.4688 20.5ZM88.2578 17V29H86.8047V17H88.2578ZM93.4219 20.5469L89.7344 24.4922L87.6719 26.6328L87.5547 25.0938L89.0312 23.3281L91.6562 20.5469H93.4219ZM92.1016 29L89.0859 24.9688L89.8359 23.6797L93.8047 29H92.1016ZM98.2656 29.1562C97.6771 29.1562 97.1432 29.0573 96.6641 28.8594C96.1901 28.6562 95.7812 28.3724 95.4375 28.0078C95.099 27.6432 94.8385 27.2109 94.6562 26.7109C94.474 26.2109 94.3828 25.6641 94.3828 25.0703V24.7422C94.3828 24.0547 94.4844 23.4427 94.6875 22.9062C94.8906 22.3646 95.1667 21.9062 95.5156 21.5312C95.8646 21.1562 96.2604 20.8724 96.7031 20.6797C97.1458 20.487 97.6042 20.3906 98.0781 20.3906C98.6823 20.3906 99.2031 20.4948 99.6406 20.7031C100.083 20.9115 100.445 21.2031 100.727 21.5781C101.008 21.9479 101.216 22.3854 101.352 22.8906C101.487 23.3906 101.555 23.9375 101.555 24.5312V25.1797H95.2422V24H100.109V23.8906C100.089 23.5156 100.01 23.151 99.875 22.7969C99.7448 22.4427 99.5365 22.151 99.25 21.9219C98.9635 21.6927 98.5729 21.5781 98.0781 21.5781C97.75 21.5781 97.4479 21.6484 97.1719 21.7891C96.8958 21.9245 96.6589 22.1276 96.4609 22.3984C96.263 22.6693 96.1094 23 96 23.3906C95.8906 23.7812 95.8359 24.2318 95.8359 24.7422V25.0703C95.8359 25.4714 95.8906 25.849 96 26.2031C96.1146 26.5521 96.2786 26.8594 96.4922 27.125C96.7109 27.3906 96.974 27.599 97.2812 27.75C97.5938 27.901 97.9479 27.9766 98.3438 27.9766C98.8542 27.9766 99.2865 27.8724 99.6406 27.6641C99.9948 27.4557 100.305 27.1771 100.57 26.8281L101.445 27.5234C101.263 27.7995 101.031 28.0625 100.75 28.3125C100.469 28.5625 100.122 28.7656 99.7109 28.9219C99.3047 29.0781 98.8229 29.1562 98.2656 29.1562ZM104.688 21.875V29H103.242V20.5469H104.648L104.688 21.875ZM107.328 20.5L107.32 21.8438C107.201 21.8177 107.086 21.8021 106.977 21.7969C106.872 21.7865 106.753 21.7812 106.617 21.7812C106.284 21.7812 105.99 21.8333 105.734 21.9375C105.479 22.0417 105.263 22.1875 105.086 22.375C104.909 22.5625 104.768 22.7865 104.664 23.0469C104.565 23.3021 104.5 23.5833 104.469 23.8906L104.062 24.125C104.062 23.6146 104.112 23.1354 104.211 22.6875C104.315 22.2396 104.474 21.8438 104.688 21.5C104.901 21.151 105.172 20.8802 105.5 20.6875C105.833 20.4896 106.229 20.3906 106.688 20.3906C106.792 20.3906 106.911 20.4036 107.047 20.4297C107.182 20.4505 107.276 20.474 107.328 20.5Z" fill="#8F98AA"/>
<path d="M23 1H105V-1H23V1ZM127 23V25H129V23H127ZM105 47H23V49H105V47ZM1 25V23H-1V25H1ZM23 47C10.8497 47 1 37.1503 1 25H-1C-1 38.2548 9.74517 49 23 49V47ZM127 25C127 37.1503 117.15 47 105 47V49C118.255 49 129 38.2548 129 25H127ZM105 1C117.15 1 127 10.8497 127 23H129C129 9.74517 118.255 -1 105 -1V1ZM23 -1C9.74517 -1 -1 9.74517 -1 23H1C1 10.8497 10.8497 1 23 1V-1Z" fill="#8F98AA"/>
</svg>
