<svg width="145" height="48" viewBox="0 0 145 48" fill="none" xmlns="http://www.w3.org/2000/svg">
<path d="M22.8281 17.625V29H21.3203V17.625H22.8281ZM27.5938 22.7422V23.9766H22.5V22.7422H27.5938ZM28.3672 17.625V18.8594H22.5V17.625H28.3672ZM31.5156 20.5469V29H30.0625V20.5469H31.5156ZM29.9531 18.3047C29.9531 18.0703 30.0234 17.8724 30.1641 17.7109C30.3099 17.5495 30.5234 17.4688 30.8047 17.4688C31.0807 17.4688 31.2917 17.5495 31.4375 17.7109C31.5885 17.8724 31.6641 18.0703 31.6641 18.3047C31.6641 18.5286 31.5885 18.7214 31.4375 18.8828C31.2917 19.0391 31.0807 19.1172 30.8047 19.1172C30.5234 19.1172 30.3099 19.0391 30.1641 18.8828C30.0234 18.7214 29.9531 18.5286 29.9531 18.3047ZM35.4062 17V29H33.9531V17H35.4062ZM39.1641 22.2266V29H37.7109V20.5469H39.0859L39.1641 22.2266ZM38.8672 24.4531L38.1953 24.4297C38.2005 23.8516 38.276 23.3177 38.4219 22.8281C38.5677 22.3333 38.7839 21.9036 39.0703 21.5391C39.3568 21.1745 39.7135 20.8932 40.1406 20.6953C40.5677 20.4922 41.0625 20.3906 41.625 20.3906C42.0208 20.3906 42.3854 20.4479 42.7188 20.5625C43.0521 20.6719 43.3411 20.8464 43.5859 21.0859C43.8307 21.3255 44.0208 21.6328 44.1562 22.0078C44.2917 22.3828 44.3594 22.8359 44.3594 23.3672V29H42.9141V23.4375C42.9141 22.9948 42.8385 22.6406 42.6875 22.375C42.5417 22.1094 42.3333 21.9167 42.0625 21.7969C41.7917 21.6719 41.474 21.6094 41.1094 21.6094C40.6823 21.6094 40.3255 21.6849 40.0391 21.8359C39.7526 21.987 39.5234 22.1953 39.3516 22.4609C39.1797 22.7266 39.0547 23.0312 38.9766 23.375C38.9036 23.7135 38.8672 24.0729 38.8672 24.4531ZM44.3438 23.6562L43.375 23.9531C43.3802 23.4896 43.4557 23.0443 43.6016 22.6172C43.7526 22.1901 43.9688 21.8099 44.25 21.4766C44.5365 21.1432 44.888 20.8802 45.3047 20.6875C45.7214 20.4896 46.1979 20.3906 46.7344 20.3906C47.1875 20.3906 47.5885 20.4505 47.9375 20.5703C48.2917 20.6901 48.5885 20.875 48.8281 21.125C49.0729 21.3698 49.2578 21.6849 49.3828 22.0703C49.5078 22.4557 49.5703 22.9141 49.5703 23.4453V29H48.1172V23.4297C48.1172 22.9557 48.0417 22.5885 47.8906 22.3281C47.7448 22.0625 47.5365 21.8776 47.2656 21.7734C47 21.6641 46.6823 21.6094 46.3125 21.6094C45.9948 21.6094 45.7135 21.6641 45.4688 21.7734C45.224 21.8828 45.0182 22.0339 44.8516 22.2266C44.6849 22.4141 44.5573 22.6302 44.4688 22.875C44.3854 23.1198 44.3438 23.3802 44.3438 23.6562ZM57.5625 17.625V29H56.0547V17.625H57.5625ZM61.5312 22.3516V29H60.0859V20.5469H61.4531L61.5312 22.3516ZM61.1875 24.4531L60.5859 24.4297C60.5911 23.8516 60.6771 23.3177 60.8438 22.8281C61.0104 22.3333 61.2448 21.9036 61.5469 21.5391C61.849 21.1745 62.2083 20.8932 62.625 20.6953C63.0469 20.4922 63.513 20.3906 64.0234 20.3906C64.4401 20.3906 64.8151 20.4479 65.1484 20.5625C65.4818 20.6719 65.7656 20.849 66 21.0938C66.2396 21.3385 66.4219 21.6562 66.5469 22.0469C66.6719 22.4323 66.7344 22.9036 66.7344 23.4609V29H65.2812V23.4453C65.2812 23.0026 65.2161 22.6484 65.0859 22.3828C64.9557 22.112 64.7656 21.9167 64.5156 21.7969C64.2656 21.6719 63.9583 21.6094 63.5938 21.6094C63.2344 21.6094 62.9062 21.6849 62.6094 21.8359C62.3177 21.987 62.0651 22.1953 61.8516 22.4609C61.6432 22.7266 61.4792 23.0312 61.3594 23.375C61.2448 23.7135 61.1875 24.0729 61.1875 24.4531ZM74.2578 27.3594V17H75.7109V29H74.3828L74.2578 27.3594ZM68.5703 24.8672V24.7031C68.5703 24.0573 68.6484 23.4714 68.8047 22.9453C68.9661 22.4141 69.1927 21.9583 69.4844 21.5781C69.7812 21.1979 70.1328 20.9062 70.5391 20.7031C70.9505 20.4948 71.4089 20.3906 71.9141 20.3906C72.4453 20.3906 72.9089 20.4844 73.3047 20.6719C73.7057 20.8542 74.0443 21.1224 74.3203 21.4766C74.6016 21.8255 74.8229 22.2474 74.9844 22.7422C75.1458 23.237 75.2578 23.7969 75.3203 24.4219V25.1406C75.263 25.7604 75.151 26.3177 74.9844 26.8125C74.8229 27.3073 74.6016 27.7292 74.3203 28.0781C74.0443 28.4271 73.7057 28.6953 73.3047 28.8828C72.9036 29.0651 72.4349 29.1562 71.8984 29.1562C71.4036 29.1562 70.9505 29.0495 70.5391 28.8359C70.1328 28.6224 69.7812 28.3229 69.4844 27.9375C69.1927 27.5521 68.9661 27.099 68.8047 26.5781C68.6484 26.0521 68.5703 25.4818 68.5703 24.8672ZM70.0234 24.7031V24.8672C70.0234 25.2891 70.0651 25.6849 70.1484 26.0547C70.237 26.4245 70.3724 26.75 70.5547 27.0312C70.737 27.3125 70.9688 27.5339 71.25 27.6953C71.5312 27.8516 71.8672 27.9297 72.2578 27.9297C72.737 27.9297 73.1302 27.8281 73.4375 27.625C73.75 27.4219 74 27.1536 74.1875 26.8203C74.375 26.487 74.5208 26.125 74.625 25.7344V23.8516C74.5625 23.5651 74.4714 23.2891 74.3516 23.0234C74.237 22.7526 74.0859 22.513 73.8984 22.3047C73.7161 22.0911 73.4896 21.9219 73.2188 21.7969C72.9531 21.6719 72.638 21.6094 72.2734 21.6094C71.8776 21.6094 71.5365 21.6927 71.25 21.8594C70.9688 22.0208 70.737 22.2448 70.5547 22.5312C70.3724 22.8125 70.237 23.1406 70.1484 23.5156C70.0651 23.8854 70.0234 24.2812 70.0234 24.7031ZM77.5781 24.8672V24.6875C77.5781 24.0781 77.6667 23.513 77.8438 22.9922C78.0208 22.4661 78.276 22.0104 78.6094 21.625C78.9427 21.2344 79.3464 20.9323 79.8203 20.7188C80.2943 20.5 80.8255 20.3906 81.4141 20.3906C82.0078 20.3906 82.5417 20.5 83.0156 20.7188C83.4948 20.9323 83.901 21.2344 84.2344 21.625C84.5729 22.0104 84.8307 22.4661 85.0078 22.9922C85.1849 23.513 85.2734 24.0781 85.2734 24.6875V24.8672C85.2734 25.4766 85.1849 26.0417 85.0078 26.5625C84.8307 27.0833 84.5729 27.5391 84.2344 27.9297C83.901 28.3151 83.4974 28.6172 83.0234 28.8359C82.5547 29.0495 82.0234 29.1562 81.4297 29.1562C80.8359 29.1562 80.3021 29.0495 79.8281 28.8359C79.3542 28.6172 78.9479 28.3151 78.6094 27.9297C78.276 27.5391 78.0208 27.0833 77.8438 26.5625C77.6667 26.0417 77.5781 25.4766 77.5781 24.8672ZM79.0234 24.6875V24.8672C79.0234 25.2891 79.0729 25.6875 79.1719 26.0625C79.2708 26.4323 79.4193 26.7604 79.6172 27.0469C79.8203 27.3333 80.0729 27.5599 80.375 27.7266C80.6771 27.888 81.0286 27.9688 81.4297 27.9688C81.8255 27.9688 82.1719 27.888 82.4688 27.7266C82.7708 27.5599 83.0208 27.3333 83.2188 27.0469C83.4167 26.7604 83.5651 26.4323 83.6641 26.0625C83.7682 25.6875 83.8203 25.2891 83.8203 24.8672V24.6875C83.8203 24.2708 83.7682 23.8776 83.6641 23.5078C83.5651 23.1328 83.4141 22.8021 83.2109 22.5156C83.013 22.224 82.763 21.9948 82.4609 21.8281C82.1641 21.6615 81.8151 21.5781 81.4141 21.5781C81.0182 21.5781 80.6693 21.6615 80.3672 21.8281C80.0703 21.9948 79.8203 22.224 79.6172 22.5156C79.4193 22.8021 79.2708 23.1328 79.1719 23.5078C79.0729 23.8776 79.0234 24.2708 79.0234 24.6875ZM88.5312 22.3516V29H87.0859V20.5469H88.4531L88.5312 22.3516ZM88.1875 24.4531L87.5859 24.4297C87.5911 23.8516 87.6771 23.3177 87.8438 22.8281C88.0104 22.3333 88.2448 21.9036 88.5469 21.5391C88.849 21.1745 89.2083 20.8932 89.625 20.6953C90.0469 20.4922 90.513 20.3906 91.0234 20.3906C91.4401 20.3906 91.8151 20.4479 92.1484 20.5625C92.4818 20.6719 92.7656 20.849 93 21.0938C93.2396 21.3385 93.4219 21.6562 93.5469 22.0469C93.6719 22.4323 93.7344 22.9036 93.7344 23.4609V29H92.2812V23.4453C92.2812 23.0026 92.2161 22.6484 92.0859 22.3828C91.9557 22.112 91.7656 21.9167 91.5156 21.7969C91.2656 21.6719 90.9583 21.6094 90.5938 21.6094C90.2344 21.6094 89.9062 21.6849 89.6094 21.8359C89.3177 21.987 89.0651 22.1953 88.8516 22.4609C88.6432 22.7266 88.4792 23.0312 88.3594 23.375C88.2448 23.7135 88.1875 24.0729 88.1875 24.4531ZM99.4375 29.1562C98.849 29.1562 98.3151 29.0573 97.8359 28.8594C97.362 28.6562 96.9531 28.3724 96.6094 28.0078C96.2708 27.6432 96.0104 27.2109 95.8281 26.7109C95.6458 26.2109 95.5547 25.6641 95.5547 25.0703V24.7422C95.5547 24.0547 95.6562 23.4427 95.8594 22.9062C96.0625 22.3646 96.3385 21.9062 96.6875 21.5312C97.0365 21.1562 97.4323 20.8724 97.875 20.6797C98.3177 20.487 98.776 20.3906 99.25 20.3906C99.8542 20.3906 100.375 20.4948 100.812 20.7031C101.255 20.9115 101.617 21.2031 101.898 21.5781C102.18 21.9479 102.388 22.3854 102.523 22.8906C102.659 23.3906 102.727 23.9375 102.727 24.5312V25.1797H96.4141V24H101.281V23.8906C101.26 23.5156 101.182 23.151 101.047 22.7969C100.917 22.4427 100.708 22.151 100.422 21.9219C100.135 21.6927 99.7448 21.5781 99.25 21.5781C98.9219 21.5781 98.6198 21.6484 98.3438 21.7891C98.0677 21.9245 97.8307 22.1276 97.6328 22.3984C97.4349 22.6693 97.2812 23 97.1719 23.3906C97.0625 23.7812 97.0078 24.2318 97.0078 24.7422V25.0703C97.0078 25.4714 97.0625 25.849 97.1719 26.2031C97.2865 26.5521 97.4505 26.8594 97.6641 27.125C97.8828 27.3906 98.1458 27.599 98.4531 27.75C98.7656 27.901 99.1198 27.9766 99.5156 27.9766C100.026 27.9766 100.458 27.8724 100.812 27.6641C101.167 27.4557 101.477 27.1771 101.742 26.8281L102.617 27.5234C102.435 27.7995 102.203 28.0625 101.922 28.3125C101.641 28.5625 101.294 28.7656 100.883 28.9219C100.477 29.0781 99.9948 29.1562 99.4375 29.1562ZM109.336 26.7578C109.336 26.5495 109.289 26.3568 109.195 26.1797C109.107 25.9974 108.922 25.8333 108.641 25.6875C108.365 25.5365 107.948 25.4062 107.391 25.2969C106.922 25.1979 106.497 25.0807 106.117 24.9453C105.742 24.8099 105.422 24.6458 105.156 24.4531C104.896 24.2604 104.695 24.0339 104.555 23.7734C104.414 23.513 104.344 23.2083 104.344 22.8594C104.344 22.526 104.417 22.2109 104.562 21.9141C104.714 21.6172 104.924 21.3542 105.195 21.125C105.471 20.8958 105.802 20.7161 106.188 20.5859C106.573 20.4557 107.003 20.3906 107.477 20.3906C108.154 20.3906 108.732 20.5104 109.211 20.75C109.69 20.9896 110.057 21.3099 110.312 21.7109C110.568 22.1068 110.695 22.5469 110.695 23.0312H109.25C109.25 22.7969 109.18 22.5703 109.039 22.3516C108.904 22.1276 108.703 21.9427 108.438 21.7969C108.177 21.651 107.857 21.5781 107.477 21.5781C107.076 21.5781 106.75 21.6406 106.5 21.7656C106.255 21.8854 106.076 22.0391 105.961 22.2266C105.852 22.4141 105.797 22.612 105.797 22.8203C105.797 22.9766 105.823 23.1172 105.875 23.2422C105.932 23.362 106.031 23.474 106.172 23.5781C106.312 23.6771 106.51 23.7708 106.766 23.8594C107.021 23.9479 107.346 24.0365 107.742 24.125C108.435 24.2812 109.005 24.4688 109.453 24.6875C109.901 24.9062 110.234 25.1745 110.453 25.4922C110.672 25.8099 110.781 26.1953 110.781 26.6484C110.781 27.0182 110.703 27.3568 110.547 27.6641C110.396 27.9714 110.174 28.237 109.883 28.4609C109.596 28.6797 109.253 28.8516 108.852 28.9766C108.456 29.0964 108.01 29.1562 107.516 29.1562C106.771 29.1562 106.141 29.0234 105.625 28.7578C105.109 28.4922 104.719 28.1484 104.453 27.7266C104.188 27.3047 104.055 26.8594 104.055 26.3906H105.508C105.529 26.7865 105.643 27.1016 105.852 27.3359C106.06 27.5651 106.315 27.7292 106.617 27.8281C106.919 27.9219 107.219 27.9688 107.516 27.9688C107.911 27.9688 108.242 27.9167 108.508 27.8125C108.779 27.7083 108.984 27.5651 109.125 27.3828C109.266 27.2005 109.336 26.9922 109.336 26.7578ZM114.25 20.5469V29H112.797V20.5469H114.25ZM112.688 18.3047C112.688 18.0703 112.758 17.8724 112.898 17.7109C113.044 17.5495 113.258 17.4688 113.539 17.4688C113.815 17.4688 114.026 17.5495 114.172 17.7109C114.323 17.8724 114.398 18.0703 114.398 18.3047C114.398 18.5286 114.323 18.7214 114.172 18.8828C114.026 19.0391 113.815 19.1172 113.539 19.1172C113.258 19.1172 113.044 19.0391 112.898 18.8828C112.758 18.7214 112.688 18.5286 112.688 18.3047ZM121.555 27.5547V23.2031C121.555 22.8698 121.487 22.5807 121.352 22.3359C121.221 22.0859 121.023 21.8932 120.758 21.7578C120.492 21.6224 120.164 21.5547 119.773 21.5547C119.409 21.5547 119.089 21.6172 118.812 21.7422C118.542 21.8672 118.328 22.0312 118.172 22.2344C118.021 22.4375 117.945 22.6562 117.945 22.8906H116.5C116.5 22.5885 116.578 22.2891 116.734 21.9922C116.891 21.6953 117.115 21.4271 117.406 21.1875C117.703 20.9427 118.057 20.75 118.469 20.6094C118.885 20.4635 119.349 20.3906 119.859 20.3906C120.474 20.3906 121.016 20.4948 121.484 20.7031C121.958 20.9115 122.328 21.2266 122.594 21.6484C122.865 22.0651 123 22.5885 123 23.2188V27.1562C123 27.4375 123.023 27.737 123.07 28.0547C123.122 28.3724 123.198 28.6458 123.297 28.875V29H121.789C121.716 28.8333 121.659 28.612 121.617 28.3359C121.576 28.0547 121.555 27.7943 121.555 27.5547ZM121.805 23.875L121.82 24.8906H120.359C119.948 24.8906 119.581 24.9245 119.258 24.9922C118.935 25.0547 118.664 25.151 118.445 25.2812C118.227 25.4115 118.06 25.5755 117.945 25.7734C117.831 25.9661 117.773 26.1927 117.773 26.4531C117.773 26.7188 117.833 26.9609 117.953 27.1797C118.073 27.3984 118.253 27.5729 118.492 27.7031C118.737 27.8281 119.036 27.8906 119.391 27.8906C119.833 27.8906 120.224 27.7969 120.562 27.6094C120.901 27.4219 121.169 27.1927 121.367 26.9219C121.57 26.651 121.68 26.388 121.695 26.1328L122.312 26.8281C122.276 27.0469 122.177 27.2891 122.016 27.5547C121.854 27.8203 121.638 28.0755 121.367 28.3203C121.102 28.5599 120.784 28.7604 120.414 28.9219C120.049 29.0781 119.638 29.1562 119.18 29.1562C118.607 29.1562 118.104 29.0443 117.672 28.8203C117.245 28.5964 116.911 28.2969 116.672 27.9219C116.438 27.5417 116.32 27.1172 116.32 26.6484C116.32 26.1953 116.409 25.7969 116.586 25.4531C116.763 25.1042 117.018 24.8151 117.352 24.5859C117.685 24.3516 118.086 24.1745 118.555 24.0547C119.023 23.9349 119.547 23.875 120.125 23.875H121.805Z" fill="#8F98AA"/>
<path d="M23 1H122V-1H23V1ZM144 23V25H146V23H144ZM122 47H23V49H122V47ZM1 25V23H-1V25H1ZM23 47C10.8497 47 1 37.1503 1 25H-1C-1 38.2548 9.74517 49 23 49V47ZM144 25C144 37.1503 134.15 47 122 47V49C135.255 49 146 38.2548 146 25H144ZM122 1C134.15 1 144 10.8497 144 23H146C146 9.74517 135.255 -1 122 -1V1ZM23 -1C9.74517 -1 -1 9.74517 -1 23H1C1 10.8497 10.8497 1 23 1V-1Z" fill="#8F98AA"/>
</svg>
