<svg width="71" height="48" viewBox="0 0 71 48" fill="none" xmlns="http://www.w3.org/2000/svg">
<path d="M25.5312 18.6328L21.7656 29H20.2266L24.5625 17.625H25.5547L25.5312 18.6328ZM28.6875 29L24.9141 18.6328L24.8906 17.625H25.8828L30.2344 29H28.6875ZM28.4922 24.7891V26.0234H22.1016V24.7891H28.4922ZM32.9922 17V29H31.5391V17H32.9922ZM38.1562 20.5469L34.4688 24.4922L32.4062 26.6328L32.2891 25.0938L33.7656 23.3281L36.3906 20.5469H38.1562ZM36.8359 29L33.8203 24.9688L34.5703 23.6797L38.5391 29H36.8359ZM44.5703 26.7578C44.5703 26.5495 44.5234 26.3568 44.4297 26.1797C44.3411 25.9974 44.1562 25.8333 43.875 25.6875C43.599 25.5365 43.1823 25.4062 42.625 25.2969C42.1562 25.1979 41.7318 25.0807 41.3516 24.9453C40.9766 24.8099 40.6562 24.6458 40.3906 24.4531C40.1302 24.2604 39.9297 24.0339 39.7891 23.7734C39.6484 23.513 39.5781 23.2083 39.5781 22.8594C39.5781 22.526 39.651 22.2109 39.7969 21.9141C39.9479 21.6172 40.1589 21.3542 40.4297 21.125C40.7057 20.8958 41.0365 20.7161 41.4219 20.5859C41.8073 20.4557 42.237 20.3906 42.7109 20.3906C43.388 20.3906 43.9661 20.5104 44.4453 20.75C44.9245 20.9896 45.2917 21.3099 45.5469 21.7109C45.8021 22.1068 45.9297 22.5469 45.9297 23.0312H44.4844C44.4844 22.7969 44.4141 22.5703 44.2734 22.3516C44.138 22.1276 43.9375 21.9427 43.6719 21.7969C43.4115 21.651 43.0911 21.5781 42.7109 21.5781C42.3099 21.5781 41.9844 21.6406 41.7344 21.7656C41.4896 21.8854 41.3099 22.0391 41.1953 22.2266C41.0859 22.4141 41.0312 22.612 41.0312 22.8203C41.0312 22.9766 41.0573 23.1172 41.1094 23.2422C41.1667 23.362 41.2656 23.474 41.4062 23.5781C41.5469 23.6771 41.7448 23.7708 42 23.8594C42.2552 23.9479 42.5807 24.0365 42.9766 24.125C43.6693 24.2812 44.2396 24.4688 44.6875 24.6875C45.1354 24.9062 45.4688 25.1745 45.6875 25.4922C45.9062 25.8099 46.0156 26.1953 46.0156 26.6484C46.0156 27.0182 45.9375 27.3568 45.7812 27.6641C45.6302 27.9714 45.4089 28.237 45.1172 28.4609C44.8307 28.6797 44.487 28.8516 44.0859 28.9766C43.6901 29.0964 43.2448 29.1562 42.75 29.1562C42.0052 29.1562 41.375 29.0234 40.8594 28.7578C40.3438 28.4922 39.9531 28.1484 39.6875 27.7266C39.4219 27.3047 39.2891 26.8594 39.2891 26.3906H40.7422C40.763 26.7865 40.8776 27.1016 41.0859 27.3359C41.2943 27.5651 41.5495 27.7292 41.8516 27.8281C42.1536 27.9219 42.4531 27.9688 42.75 27.9688C43.1458 27.9688 43.4766 27.9167 43.7422 27.8125C44.013 27.7083 44.2188 27.5651 44.3594 27.3828C44.5 27.2005 44.5703 26.9922 44.5703 26.7578ZM49.4844 20.5469V29H48.0312V20.5469H49.4844ZM47.9219 18.3047C47.9219 18.0703 47.9922 17.8724 48.1328 17.7109C48.2786 17.5495 48.4922 17.4688 48.7734 17.4688C49.0495 17.4688 49.2604 17.5495 49.4062 17.7109C49.5573 17.8724 49.6328 18.0703 49.6328 18.3047C49.6328 18.5286 49.5573 18.7214 49.4062 18.8828C49.2604 19.0391 49.0495 19.1172 48.7734 19.1172C48.4922 19.1172 48.2786 19.0391 48.1328 18.8828C47.9922 18.7214 47.9219 18.5286 47.9219 18.3047Z" fill="#8F98AA"/>
<path d="M23 1H48V-1H23V1ZM70 23V25H72V23H70ZM48 47H23V49H48V47ZM1 25V23H-1V25H1ZM23 47C10.8497 47 1 37.1503 1 25H-1C-1 38.2548 9.74517 49 23 49V47ZM70 25C70 37.1503 60.1503 47 48 47V49C61.2548 49 72 38.2548 72 25H70ZM48 1C60.1503 1 70 10.8497 70 23H72C72 9.74517 61.2548 -1 48 -1V1ZM23 -1C9.74517 -1 -1 9.74517 -1 23H1C1 10.8497 10.8497 1 23 1V-1Z" fill="#8F98AA"/>
</svg>
