<svg width="117" height="48" viewBox="0 0 117 48" fill="none" xmlns="http://www.w3.org/2000/svg">
<path d="M27.3828 26.125C27.3828 25.8594 27.3411 25.625 27.2578 25.4219C27.1797 25.2135 27.0391 25.026 26.8359 24.8594C26.638 24.6927 26.362 24.5339 26.0078 24.3828C25.6589 24.2318 25.2161 24.0781 24.6797 23.9219C24.1172 23.7552 23.6094 23.5703 23.1562 23.3672C22.7031 23.1589 22.3151 22.9219 21.9922 22.6562C21.6693 22.3906 21.4219 22.0859 21.25 21.7422C21.0781 21.3984 20.9922 21.0052 20.9922 20.5625C20.9922 20.1198 21.0833 19.7109 21.2656 19.3359C21.4479 18.9609 21.7083 18.6354 22.0469 18.3594C22.3906 18.0781 22.7995 17.8594 23.2734 17.7031C23.7474 17.5469 24.276 17.4688 24.8594 17.4688C25.7135 17.4688 26.4375 17.6328 27.0312 17.9609C27.6302 18.2839 28.0859 18.7083 28.3984 19.2344C28.7109 19.7552 28.8672 20.3125 28.8672 20.9062H27.3672C27.3672 20.4792 27.276 20.1016 27.0938 19.7734C26.9115 19.4401 26.6354 19.1797 26.2656 18.9922C25.8958 18.7995 25.4271 18.7031 24.8594 18.7031C24.3229 18.7031 23.8802 18.7839 23.5312 18.9453C23.1823 19.1068 22.9219 19.3255 22.75 19.6016C22.5833 19.8776 22.5 20.1927 22.5 20.5469C22.5 20.7865 22.5495 21.0052 22.6484 21.2031C22.7526 21.3958 22.9115 21.5755 23.125 21.7422C23.3438 21.9089 23.6198 22.0625 23.9531 22.2031C24.2917 22.3438 24.6953 22.4792 25.1641 22.6094C25.8099 22.7917 26.3672 22.9948 26.8359 23.2188C27.3047 23.4427 27.6901 23.6953 27.9922 23.9766C28.2995 24.2526 28.526 24.5677 28.6719 24.9219C28.8229 25.2708 28.8984 25.6667 28.8984 26.1094C28.8984 26.5729 28.8047 26.9922 28.6172 27.3672C28.4297 27.7422 28.1615 28.0625 27.8125 28.3281C27.4635 28.5938 27.0443 28.7995 26.5547 28.9453C26.0703 29.0859 25.5286 29.1562 24.9297 29.1562C24.4036 29.1562 23.8854 29.0833 23.375 28.9375C22.8698 28.7917 22.4089 28.5729 21.9922 28.2812C21.5807 27.9896 21.25 27.6302 21 27.2031C20.7552 26.7708 20.6328 26.2708 20.6328 25.7031H22.1328C22.1328 26.0938 22.2083 26.4297 22.3594 26.7109C22.5104 26.987 22.7161 27.2161 22.9766 27.3984C23.2422 27.5807 23.5417 27.7161 23.875 27.8047C24.2135 27.888 24.5651 27.9297 24.9297 27.9297C25.4557 27.9297 25.901 27.8568 26.2656 27.7109C26.6302 27.5651 26.9062 27.3568 27.0938 27.0859C27.2865 26.8151 27.3828 26.4948 27.3828 26.125ZM32.0469 22.1719V32.25H30.5938V20.5469H31.9219L32.0469 22.1719ZM37.7422 24.7031V24.8672C37.7422 25.4818 37.6693 26.0521 37.5234 26.5781C37.3776 27.099 37.1641 27.5521 36.8828 27.9375C36.6068 28.3229 36.2656 28.6224 35.8594 28.8359C35.4531 29.0495 34.987 29.1562 34.4609 29.1562C33.9245 29.1562 33.4505 29.0677 33.0391 28.8906C32.6276 28.7135 32.2786 28.4557 31.9922 28.1172C31.7057 27.7786 31.4766 27.3724 31.3047 26.8984C31.138 26.4245 31.0234 25.8906 30.9609 25.2969V24.4219C31.0234 23.7969 31.1406 23.237 31.3125 22.7422C31.4844 22.2474 31.7109 21.8255 31.9922 21.4766C32.2786 21.1224 32.625 20.8542 33.0312 20.6719C33.4375 20.4844 33.9062 20.3906 34.4375 20.3906C34.9688 20.3906 35.4401 20.4948 35.8516 20.7031C36.263 20.9062 36.6094 21.1979 36.8906 21.5781C37.1719 21.9583 37.3828 22.4141 37.5234 22.9453C37.6693 23.4714 37.7422 24.0573 37.7422 24.7031ZM36.2891 24.8672V24.7031C36.2891 24.2812 36.2448 23.8854 36.1562 23.5156C36.0677 23.1406 35.9297 22.8125 35.7422 22.5312C35.5599 22.2448 35.3255 22.0208 35.0391 21.8594C34.7526 21.6927 34.4115 21.6094 34.0156 21.6094C33.651 21.6094 33.3333 21.6719 33.0625 21.7969C32.7969 21.9219 32.5703 22.0911 32.3828 22.3047C32.1953 22.513 32.0417 22.7526 31.9219 23.0234C31.8073 23.2891 31.7214 23.5651 31.6641 23.8516V25.875C31.7682 26.2396 31.9141 26.5833 32.1016 26.9062C32.2891 27.224 32.5391 27.4818 32.8516 27.6797C33.1641 27.8724 33.5573 27.9688 34.0312 27.9688C34.4219 27.9688 34.7578 27.888 35.0391 27.7266C35.3255 27.5599 35.5599 27.3333 35.7422 27.0469C35.9297 26.7604 36.0677 26.4323 36.1562 26.0625C36.2448 25.6875 36.2891 25.2891 36.2891 24.8672ZM41.1562 20.5469V29H39.7031V20.5469H41.1562ZM39.5938 18.3047C39.5938 18.0703 39.6641 17.8724 39.8047 17.7109C39.9505 17.5495 40.1641 17.4688 40.4453 17.4688C40.7214 17.4688 40.9323 17.5495 41.0781 17.7109C41.2292 17.8724 41.3047 18.0703 41.3047 18.3047C41.3047 18.5286 41.2292 18.7214 41.0781 18.8828C40.9323 19.0391 40.7214 19.1172 40.4453 19.1172C40.1641 19.1172 39.9505 19.0391 39.8047 18.8828C39.6641 18.7214 39.5938 18.5286 39.5938 18.3047ZM48.8047 27.3594V17H50.2578V29H48.9297L48.8047 27.3594ZM43.1172 24.8672V24.7031C43.1172 24.0573 43.1953 23.4714 43.3516 22.9453C43.513 22.4141 43.7396 21.9583 44.0312 21.5781C44.3281 21.1979 44.6797 20.9062 45.0859 20.7031C45.4974 20.4948 45.9557 20.3906 46.4609 20.3906C46.9922 20.3906 47.4557 20.4844 47.8516 20.6719C48.2526 20.8542 48.5911 21.1224 48.8672 21.4766C49.1484 21.8255 49.3698 22.2474 49.5312 22.7422C49.6927 23.237 49.8047 23.7969 49.8672 24.4219V25.1406C49.8099 25.7604 49.6979 26.3177 49.5312 26.8125C49.3698 27.3073 49.1484 27.7292 48.8672 28.0781C48.5911 28.4271 48.2526 28.6953 47.8516 28.8828C47.4505 29.0651 46.9818 29.1562 46.4453 29.1562C45.9505 29.1562 45.4974 29.0495 45.0859 28.8359C44.6797 28.6224 44.3281 28.3229 44.0312 27.9375C43.7396 27.5521 43.513 27.099 43.3516 26.5781C43.1953 26.0521 43.1172 25.4818 43.1172 24.8672ZM44.5703 24.7031V24.8672C44.5703 25.2891 44.612 25.6849 44.6953 26.0547C44.7839 26.4245 44.9193 26.75 45.1016 27.0312C45.2839 27.3125 45.5156 27.5339 45.7969 27.6953C46.0781 27.8516 46.4141 27.9297 46.8047 27.9297C47.2839 27.9297 47.6771 27.8281 47.9844 27.625C48.2969 27.4219 48.5469 27.1536 48.7344 26.8203C48.9219 26.487 49.0677 26.125 49.1719 25.7344V23.8516C49.1094 23.5651 49.0182 23.2891 48.8984 23.0234C48.7839 22.7526 48.6328 22.513 48.4453 22.3047C48.263 22.0911 48.0365 21.9219 47.7656 21.7969C47.5 21.6719 47.1849 21.6094 46.8203 21.6094C46.4245 21.6094 46.0833 21.6927 45.7969 21.8594C45.5156 22.0208 45.2839 22.2448 45.1016 22.5312C44.9193 22.8125 44.7839 23.1406 44.6953 23.5156C44.612 23.8854 44.5703 24.2812 44.5703 24.7031ZM56.0156 29.1562C55.4271 29.1562 54.8932 29.0573 54.4141 28.8594C53.9401 28.6562 53.5312 28.3724 53.1875 28.0078C52.849 27.6432 52.5885 27.2109 52.4062 26.7109C52.224 26.2109 52.1328 25.6641 52.1328 25.0703V24.7422C52.1328 24.0547 52.2344 23.4427 52.4375 22.9062C52.6406 22.3646 52.9167 21.9062 53.2656 21.5312C53.6146 21.1562 54.0104 20.8724 54.4531 20.6797C54.8958 20.487 55.3542 20.3906 55.8281 20.3906C56.4323 20.3906 56.9531 20.4948 57.3906 20.7031C57.8333 20.9115 58.1953 21.2031 58.4766 21.5781C58.7578 21.9479 58.9661 22.3854 59.1016 22.8906C59.237 23.3906 59.3047 23.9375 59.3047 24.5312V25.1797H52.9922V24H57.8594V23.8906C57.8385 23.5156 57.7604 23.151 57.625 22.7969C57.4948 22.4427 57.2865 22.151 57 21.9219C56.7135 21.6927 56.3229 21.5781 55.8281 21.5781C55.5 21.5781 55.1979 21.6484 54.9219 21.7891C54.6458 21.9245 54.4089 22.1276 54.2109 22.3984C54.013 22.6693 53.8594 23 53.75 23.3906C53.6406 23.7812 53.5859 24.2318 53.5859 24.7422V25.0703C53.5859 25.4714 53.6406 25.849 53.75 26.2031C53.8646 26.5521 54.0286 26.8594 54.2422 27.125C54.4609 27.3906 54.724 27.599 55.0312 27.75C55.3438 27.901 55.6979 27.9766 56.0938 27.9766C56.6042 27.9766 57.0365 27.8724 57.3906 27.6641C57.7448 27.4557 58.0547 27.1771 58.3203 26.8281L59.1953 27.5234C59.013 27.7995 58.7812 28.0625 58.5 28.3125C58.2188 28.5625 57.8724 28.7656 57.4609 28.9219C57.0547 29.0781 56.5729 29.1562 56.0156 29.1562ZM62.4375 21.875V29H60.9922V20.5469H62.3984L62.4375 21.875ZM65.0781 20.5L65.0703 21.8438C64.9505 21.8177 64.8359 21.8021 64.7266 21.7969C64.6224 21.7865 64.5026 21.7812 64.3672 21.7812C64.0339 21.7812 63.7396 21.8333 63.4844 21.9375C63.2292 22.0417 63.013 22.1875 62.8359 22.375C62.6589 22.5625 62.5182 22.7865 62.4141 23.0469C62.3151 23.3021 62.25 23.5833 62.2188 23.8906L61.8125 24.125C61.8125 23.6146 61.862 23.1354 61.9609 22.6875C62.0651 22.2396 62.224 21.8438 62.4375 21.5C62.651 21.151 62.9219 20.8802 63.25 20.6875C63.5833 20.4896 63.9792 20.3906 64.4375 20.3906C64.5417 20.3906 64.6615 20.4036 64.7969 20.4297C64.9323 20.4505 65.026 20.474 65.0781 20.5ZM67.8516 22.2266V29H66.3984V20.5469H67.7734L67.8516 22.2266ZM67.5547 24.4531L66.8828 24.4297C66.888 23.8516 66.9635 23.3177 67.1094 22.8281C67.2552 22.3333 67.4714 21.9036 67.7578 21.5391C68.0443 21.1745 68.401 20.8932 68.8281 20.6953C69.2552 20.4922 69.75 20.3906 70.3125 20.3906C70.7083 20.3906 71.0729 20.4479 71.4062 20.5625C71.7396 20.6719 72.0286 20.8464 72.2734 21.0859C72.5182 21.3255 72.7083 21.6328 72.8438 22.0078C72.9792 22.3828 73.0469 22.8359 73.0469 23.3672V29H71.6016V23.4375C71.6016 22.9948 71.526 22.6406 71.375 22.375C71.2292 22.1094 71.0208 21.9167 70.75 21.7969C70.4792 21.6719 70.1615 21.6094 69.7969 21.6094C69.3698 21.6094 69.013 21.6849 68.7266 21.8359C68.4401 21.987 68.2109 22.1953 68.0391 22.4609C67.8672 22.7266 67.7422 23.0312 67.6641 23.375C67.5911 23.7135 67.5547 24.0729 67.5547 24.4531ZM73.0312 23.6562L72.0625 23.9531C72.0677 23.4896 72.1432 23.0443 72.2891 22.6172C72.4401 22.1901 72.6562 21.8099 72.9375 21.4766C73.224 21.1432 73.5755 20.8802 73.9922 20.6875C74.4089 20.4896 74.8854 20.3906 75.4219 20.3906C75.875 20.3906 76.276 20.4505 76.625 20.5703C76.9792 20.6901 77.276 20.875 77.5156 21.125C77.7604 21.3698 77.9453 21.6849 78.0703 22.0703C78.1953 22.4557 78.2578 22.9141 78.2578 23.4453V29H76.8047V23.4297C76.8047 22.9557 76.7292 22.5885 76.5781 22.3281C76.4323 22.0625 76.224 21.8776 75.9531 21.7734C75.6875 21.6641 75.3698 21.6094 75 21.6094C74.6823 21.6094 74.401 21.6641 74.1562 21.7734C73.9115 21.8828 73.7057 22.0339 73.5391 22.2266C73.3724 22.4141 73.2448 22.6302 73.1562 22.875C73.0729 23.1198 73.0312 23.3802 73.0312 23.6562ZM85.4297 27.5547V23.2031C85.4297 22.8698 85.362 22.5807 85.2266 22.3359C85.0964 22.0859 84.8984 21.8932 84.6328 21.7578C84.3672 21.6224 84.0391 21.5547 83.6484 21.5547C83.2839 21.5547 82.9635 21.6172 82.6875 21.7422C82.4167 21.8672 82.2031 22.0312 82.0469 22.2344C81.8958 22.4375 81.8203 22.6562 81.8203 22.8906H80.375C80.375 22.5885 80.4531 22.2891 80.6094 21.9922C80.7656 21.6953 80.9896 21.4271 81.2812 21.1875C81.5781 20.9427 81.9323 20.75 82.3438 20.6094C82.7604 20.4635 83.224 20.3906 83.7344 20.3906C84.349 20.3906 84.8906 20.4948 85.3594 20.7031C85.8333 20.9115 86.2031 21.2266 86.4688 21.6484C86.7396 22.0651 86.875 22.5885 86.875 23.2188V27.1562C86.875 27.4375 86.8984 27.737 86.9453 28.0547C86.9974 28.3724 87.0729 28.6458 87.1719 28.875V29H85.6641C85.5911 28.8333 85.5339 28.612 85.4922 28.3359C85.4505 28.0547 85.4297 27.7943 85.4297 27.5547ZM85.6797 23.875L85.6953 24.8906H84.2344C83.8229 24.8906 83.4557 24.9245 83.1328 24.9922C82.8099 25.0547 82.5391 25.151 82.3203 25.2812C82.1016 25.4115 81.9349 25.5755 81.8203 25.7734C81.7057 25.9661 81.6484 26.1927 81.6484 26.4531C81.6484 26.7188 81.7083 26.9609 81.8281 27.1797C81.9479 27.3984 82.1276 27.5729 82.3672 27.7031C82.612 27.8281 82.9115 27.8906 83.2656 27.8906C83.7083 27.8906 84.099 27.7969 84.4375 27.6094C84.776 27.4219 85.0443 27.1927 85.2422 26.9219C85.4453 26.651 85.5547 26.388 85.5703 26.1328L86.1875 26.8281C86.151 27.0469 86.0521 27.2891 85.8906 27.5547C85.7292 27.8203 85.513 28.0755 85.2422 28.3203C84.9766 28.5599 84.6589 28.7604 84.2891 28.9219C83.9245 29.0781 83.513 29.1562 83.0547 29.1562C82.4818 29.1562 81.9792 29.0443 81.5469 28.8203C81.1198 28.5964 80.7865 28.2969 80.5469 27.9219C80.3125 27.5417 80.1953 27.1172 80.1953 26.6484C80.1953 26.1953 80.2839 25.7969 80.4609 25.4531C80.638 25.1042 80.8932 24.8151 81.2266 24.5859C81.5599 24.3516 81.9609 24.1745 82.4297 24.0547C82.8984 23.9349 83.4219 23.875 84 23.875H85.6797ZM90.5938 22.3516V29H89.1484V20.5469H90.5156L90.5938 22.3516ZM90.25 24.4531L89.6484 24.4297C89.6536 23.8516 89.7396 23.3177 89.9062 22.8281C90.0729 22.3333 90.3073 21.9036 90.6094 21.5391C90.9115 21.1745 91.2708 20.8932 91.6875 20.6953C92.1094 20.4922 92.5755 20.3906 93.0859 20.3906C93.5026 20.3906 93.8776 20.4479 94.2109 20.5625C94.5443 20.6719 94.8281 20.849 95.0625 21.0938C95.3021 21.3385 95.4844 21.6562 95.6094 22.0469C95.7344 22.4323 95.7969 22.9036 95.7969 23.4609V29H94.3438V23.4453C94.3438 23.0026 94.2786 22.6484 94.1484 22.3828C94.0182 22.112 93.8281 21.9167 93.5781 21.7969C93.3281 21.6719 93.0208 21.6094 92.6562 21.6094C92.2969 21.6094 91.9688 21.6849 91.6719 21.8359C91.3802 21.987 91.1276 22.1953 90.9141 22.4609C90.7057 22.7266 90.5417 23.0312 90.4219 23.375C90.3073 23.7135 90.25 24.0729 90.25 24.4531Z" fill="#8F98AA"/>
<path d="M23 1H94V-1H23V1ZM116 23V25H118V23H116ZM94 47H23V49H94V47ZM1 25V23H-1V25H1ZM23 47C10.8497 47 1 37.1503 1 25H-1C-1 38.2548 9.74516 49 23 49V47ZM116 25C116 37.1503 106.15 47 94 47V49C107.255 49 118 38.2548 118 25H116ZM94 1C106.15 1 116 10.8497 116 23H118C118 9.74517 107.255 -1 94 -1V1ZM23 -1C9.74517 -1 -1 9.74517 -1 23H1C1 10.8497 10.8497 1 23 1V-1Z" fill="#8F98AA"/>
</svg>
