<svg width="136" height="48" viewBox="0 0 136 48" fill="none" xmlns="http://www.w3.org/2000/svg">
<path d="M29.7266 23.3359V27.5C29.5859 27.7083 29.362 27.9427 29.0547 28.2031C28.7474 28.4583 28.3229 28.6823 27.7812 28.875C27.2448 29.0625 26.5521 29.1562 25.7031 29.1562C25.0104 29.1562 24.3724 29.0365 23.7891 28.7969C23.2109 28.5521 22.7083 28.1979 22.2812 27.7344C21.8594 27.2656 21.5312 26.6979 21.2969 26.0312C21.0677 25.3594 20.9531 24.599 20.9531 23.75V22.8672C20.9531 22.0182 21.0521 21.2604 21.25 20.5938C21.4531 19.9271 21.75 19.362 22.1406 18.8984C22.5312 18.4297 23.0104 18.0755 23.5781 17.8359C24.1458 17.5911 24.7969 17.4688 25.5312 17.4688C26.401 17.4688 27.1276 17.6198 27.7109 17.9219C28.2995 18.2188 28.7578 18.6302 29.0859 19.1562C29.4193 19.6823 29.6328 20.2812 29.7266 20.9531H28.2188C28.151 20.5417 28.0156 20.1667 27.8125 19.8281C27.6146 19.4896 27.3307 19.2188 26.9609 19.0156C26.5911 18.8073 26.1146 18.7031 25.5312 18.7031C25.0052 18.7031 24.5495 18.7995 24.1641 18.9922C23.7786 19.1849 23.4609 19.4609 23.2109 19.8203C22.9609 20.1797 22.7734 20.6146 22.6484 21.125C22.5286 21.6354 22.4688 22.2109 22.4688 22.8516V23.75C22.4688 24.4062 22.5443 24.9922 22.6953 25.5078C22.8516 26.0234 23.0729 26.4635 23.3594 26.8281C23.6458 27.1875 23.987 27.4609 24.3828 27.6484C24.7839 27.8359 25.2266 27.9297 25.7109 27.9297C26.2474 27.9297 26.6823 27.8854 27.0156 27.7969C27.349 27.7031 27.6094 27.5938 27.7969 27.4688C27.9844 27.3385 28.1276 27.2161 28.2266 27.1016V24.5547H25.5938V23.3359H29.7266ZM33.4531 17V29H32.0078V17H33.4531ZM33.1094 24.4531L32.5078 24.4297C32.513 23.8516 32.599 23.3177 32.7656 22.8281C32.9323 22.3333 33.1667 21.9036 33.4688 21.5391C33.7708 21.1745 34.1302 20.8932 34.5469 20.6953C34.9688 20.4922 35.4349 20.3906 35.9453 20.3906C36.362 20.3906 36.737 20.4479 37.0703 20.5625C37.4036 20.6719 37.6875 20.849 37.9219 21.0938C38.1615 21.3385 38.3438 21.6562 38.4688 22.0469C38.5938 22.4323 38.6562 22.9036 38.6562 23.4609V29H37.2031V23.4453C37.2031 23.0026 37.138 22.6484 37.0078 22.3828C36.8776 22.112 36.6875 21.9167 36.4375 21.7969C36.1875 21.6719 35.8802 21.6094 35.5156 21.6094C35.1562 21.6094 34.8281 21.6849 34.5312 21.8359C34.2396 21.987 33.987 22.1953 33.7734 22.4609C33.5651 22.7266 33.401 23.0312 33.2812 23.375C33.1667 23.7135 33.1094 24.0729 33.1094 24.4531ZM40.4375 24.8672V24.6875C40.4375 24.0781 40.526 23.513 40.7031 22.9922C40.8802 22.4661 41.1354 22.0104 41.4688 21.625C41.8021 21.2344 42.2057 20.9323 42.6797 20.7188C43.1536 20.5 43.6849 20.3906 44.2734 20.3906C44.8672 20.3906 45.401 20.5 45.875 20.7188C46.3542 20.9323 46.7604 21.2344 47.0938 21.625C47.4323 22.0104 47.6901 22.4661 47.8672 22.9922C48.0443 23.513 48.1328 24.0781 48.1328 24.6875V24.8672C48.1328 25.4766 48.0443 26.0417 47.8672 26.5625C47.6901 27.0833 47.4323 27.5391 47.0938 27.9297C46.7604 28.3151 46.3568 28.6172 45.8828 28.8359C45.4141 29.0495 44.8828 29.1562 44.2891 29.1562C43.6953 29.1562 43.1615 29.0495 42.6875 28.8359C42.2135 28.6172 41.8073 28.3151 41.4688 27.9297C41.1354 27.5391 40.8802 27.0833 40.7031 26.5625C40.526 26.0417 40.4375 25.4766 40.4375 24.8672ZM41.8828 24.6875V24.8672C41.8828 25.2891 41.9323 25.6875 42.0312 26.0625C42.1302 26.4323 42.2786 26.7604 42.4766 27.0469C42.6797 27.3333 42.9323 27.5599 43.2344 27.7266C43.5365 27.888 43.888 27.9688 44.2891 27.9688C44.6849 27.9688 45.0312 27.888 45.3281 27.7266C45.6302 27.5599 45.8802 27.3333 46.0781 27.0469C46.276 26.7604 46.4245 26.4323 46.5234 26.0625C46.6276 25.6875 46.6797 25.2891 46.6797 24.8672V24.6875C46.6797 24.2708 46.6276 23.8776 46.5234 23.5078C46.4245 23.1328 46.2734 22.8021 46.0703 22.5156C45.8724 22.224 45.6224 21.9948 45.3203 21.8281C45.0234 21.6615 44.6745 21.5781 44.2734 21.5781C43.8776 21.5781 43.5286 21.6615 43.2266 21.8281C42.9297 21.9948 42.6797 22.224 42.4766 22.5156C42.2786 22.8021 42.1302 23.1328 42.0312 23.5078C41.9323 23.8776 41.8828 24.2708 41.8828 24.6875ZM54.8672 26.7578C54.8672 26.5495 54.8203 26.3568 54.7266 26.1797C54.638 25.9974 54.4531 25.8333 54.1719 25.6875C53.8958 25.5365 53.4792 25.4062 52.9219 25.2969C52.4531 25.1979 52.0286 25.0807 51.6484 24.9453C51.2734 24.8099 50.9531 24.6458 50.6875 24.4531C50.4271 24.2604 50.2266 24.0339 50.0859 23.7734C49.9453 23.513 49.875 23.2083 49.875 22.8594C49.875 22.526 49.9479 22.2109 50.0938 21.9141C50.2448 21.6172 50.4557 21.3542 50.7266 21.125C51.0026 20.8958 51.3333 20.7161 51.7188 20.5859C52.1042 20.4557 52.5339 20.3906 53.0078 20.3906C53.6849 20.3906 54.263 20.5104 54.7422 20.75C55.2214 20.9896 55.5885 21.3099 55.8438 21.7109C56.099 22.1068 56.2266 22.5469 56.2266 23.0312H54.7812C54.7812 22.7969 54.7109 22.5703 54.5703 22.3516C54.4349 22.1276 54.2344 21.9427 53.9688 21.7969C53.7083 21.651 53.388 21.5781 53.0078 21.5781C52.6068 21.5781 52.2812 21.6406 52.0312 21.7656C51.7865 21.8854 51.6068 22.0391 51.4922 22.2266C51.3828 22.4141 51.3281 22.612 51.3281 22.8203C51.3281 22.9766 51.3542 23.1172 51.4062 23.2422C51.4635 23.362 51.5625 23.474 51.7031 23.5781C51.8438 23.6771 52.0417 23.7708 52.2969 23.8594C52.5521 23.9479 52.8776 24.0365 53.2734 24.125C53.9661 24.2812 54.5365 24.4688 54.9844 24.6875C55.4323 24.9062 55.7656 25.1745 55.9844 25.4922C56.2031 25.8099 56.3125 26.1953 56.3125 26.6484C56.3125 27.0182 56.2344 27.3568 56.0781 27.6641C55.9271 27.9714 55.7057 28.237 55.4141 28.4609C55.1276 28.6797 54.7839 28.8516 54.3828 28.9766C53.987 29.0964 53.5417 29.1562 53.0469 29.1562C52.3021 29.1562 51.6719 29.0234 51.1562 28.7578C50.6406 28.4922 50.25 28.1484 49.9844 27.7266C49.7188 27.3047 49.5859 26.8594 49.5859 26.3906H51.0391C51.0599 26.7865 51.1745 27.1016 51.3828 27.3359C51.5911 27.5651 51.8464 27.7292 52.1484 27.8281C52.4505 27.9219 52.75 27.9688 53.0469 27.9688C53.4427 27.9688 53.7734 27.9167 54.0391 27.8125C54.3099 27.7083 54.5156 27.5651 54.6562 27.3828C54.7969 27.2005 54.8672 26.9922 54.8672 26.7578ZM61.75 20.5469V21.6562H57.1797V20.5469H61.75ZM58.7266 18.4922H60.1719V26.9062C60.1719 27.1927 60.2161 27.4089 60.3047 27.5547C60.3932 27.7005 60.5078 27.7969 60.6484 27.8438C60.7891 27.8906 60.9401 27.9141 61.1016 27.9141C61.2214 27.9141 61.3464 27.9036 61.4766 27.8828C61.612 27.8568 61.7135 27.8359 61.7812 27.8203L61.7891 29C61.6745 29.0365 61.5234 29.0703 61.3359 29.1016C61.1536 29.138 60.9323 29.1562 60.6719 29.1562C60.3177 29.1562 59.9922 29.0859 59.6953 28.9453C59.3984 28.8047 59.1615 28.5703 58.9844 28.2422C58.8125 27.9089 58.7266 27.4609 58.7266 26.8984V18.4922ZM63.4375 17H64.8906V27.3594L64.7656 29H63.4375V17ZM70.6016 24.7031V24.8672C70.6016 25.4818 70.5286 26.0521 70.3828 26.5781C70.237 27.099 70.0234 27.5521 69.7422 27.9375C69.4609 28.3229 69.1172 28.6224 68.7109 28.8359C68.3047 29.0495 67.8385 29.1562 67.3125 29.1562C66.776 29.1562 66.3047 29.0651 65.8984 28.8828C65.4974 28.6953 65.1589 28.4271 64.8828 28.0781C64.6068 27.7292 64.3854 27.3073 64.2188 26.8125C64.0573 26.3177 63.9453 25.7604 63.8828 25.1406V24.4219C63.9453 23.7969 64.0573 23.237 64.2188 22.7422C64.3854 22.2474 64.6068 21.8255 64.8828 21.4766C65.1589 21.1224 65.4974 20.8542 65.8984 20.6719C66.2995 20.4844 66.7656 20.3906 67.2969 20.3906C67.8281 20.3906 68.2995 20.4948 68.7109 20.7031C69.1224 20.9062 69.4661 21.1979 69.7422 21.5781C70.0234 21.9583 70.237 22.4141 70.3828 22.9453C70.5286 23.4714 70.6016 24.0573 70.6016 24.7031ZM69.1484 24.8672V24.7031C69.1484 24.2812 69.1094 23.8854 69.0312 23.5156C68.9531 23.1406 68.8281 22.8125 68.6562 22.5312C68.4844 22.2448 68.2578 22.0208 67.9766 21.8594C67.6953 21.6927 67.349 21.6094 66.9375 21.6094C66.5729 21.6094 66.2552 21.6719 65.9844 21.7969C65.7188 21.9219 65.4922 22.0911 65.3047 22.3047C65.1172 22.513 64.9635 22.7526 64.8438 23.0234C64.7292 23.2891 64.6432 23.5651 64.5859 23.8516V25.7344C64.6693 26.099 64.8047 26.4505 64.9922 26.7891C65.1849 27.1224 65.4401 27.3958 65.7578 27.6094C66.0807 27.8229 66.4792 27.9297 66.9531 27.9297C67.3438 27.9297 67.6771 27.8516 67.9531 27.6953C68.2344 27.5339 68.4609 27.3125 68.6328 27.0312C68.8099 26.75 68.9401 26.4245 69.0234 26.0547C69.1068 25.6849 69.1484 25.2891 69.1484 24.8672ZM77.6016 27.0469V20.5469H79.0547V29H77.6719L77.6016 27.0469ZM77.875 25.2656L78.4766 25.25C78.4766 25.8125 78.4167 26.3333 78.2969 26.8125C78.1823 27.2865 77.9948 27.6979 77.7344 28.0469C77.474 28.3958 77.1328 28.6693 76.7109 28.8672C76.2891 29.0599 75.776 29.1562 75.1719 29.1562C74.7604 29.1562 74.3828 29.0964 74.0391 28.9766C73.7005 28.8568 73.4089 28.6719 73.1641 28.4219C72.9193 28.1719 72.7292 27.8464 72.5938 27.4453C72.4635 27.0443 72.3984 26.5625 72.3984 26V20.5469H73.8438V26.0156C73.8438 26.3958 73.8854 26.7109 73.9688 26.9609C74.0573 27.2057 74.1745 27.401 74.3203 27.5469C74.4714 27.6875 74.638 27.7865 74.8203 27.8438C75.0078 27.901 75.2005 27.9297 75.3984 27.9297C76.013 27.9297 76.5 27.8125 76.8594 27.5781C77.2188 27.3385 77.4766 27.0182 77.6328 26.6172C77.7943 26.2109 77.875 25.7604 77.875 25.2656ZM86.1797 26.7578C86.1797 26.5495 86.1328 26.3568 86.0391 26.1797C85.9505 25.9974 85.7656 25.8333 85.4844 25.6875C85.2083 25.5365 84.7917 25.4062 84.2344 25.2969C83.7656 25.1979 83.3411 25.0807 82.9609 24.9453C82.5859 24.8099 82.2656 24.6458 82 24.4531C81.7396 24.2604 81.5391 24.0339 81.3984 23.7734C81.2578 23.513 81.1875 23.2083 81.1875 22.8594C81.1875 22.526 81.2604 22.2109 81.4062 21.9141C81.5573 21.6172 81.7682 21.3542 82.0391 21.125C82.3151 20.8958 82.6458 20.7161 83.0312 20.5859C83.4167 20.4557 83.8464 20.3906 84.3203 20.3906C84.9974 20.3906 85.5755 20.5104 86.0547 20.75C86.5339 20.9896 86.901 21.3099 87.1562 21.7109C87.4115 22.1068 87.5391 22.5469 87.5391 23.0312H86.0938C86.0938 22.7969 86.0234 22.5703 85.8828 22.3516C85.7474 22.1276 85.5469 21.9427 85.2812 21.7969C85.0208 21.651 84.7005 21.5781 84.3203 21.5781C83.9193 21.5781 83.5938 21.6406 83.3438 21.7656C83.099 21.8854 82.9193 22.0391 82.8047 22.2266C82.6953 22.4141 82.6406 22.612 82.6406 22.8203C82.6406 22.9766 82.6667 23.1172 82.7188 23.2422C82.776 23.362 82.875 23.474 83.0156 23.5781C83.1562 23.6771 83.3542 23.7708 83.6094 23.8594C83.8646 23.9479 84.1901 24.0365 84.5859 24.125C85.2786 24.2812 85.849 24.4688 86.2969 24.6875C86.7448 24.9062 87.0781 25.1745 87.2969 25.4922C87.5156 25.8099 87.625 26.1953 87.625 26.6484C87.625 27.0182 87.5469 27.3568 87.3906 27.6641C87.2396 27.9714 87.0182 28.237 86.7266 28.4609C86.4401 28.6797 86.0964 28.8516 85.6953 28.9766C85.2995 29.0964 84.8542 29.1562 84.3594 29.1562C83.6146 29.1562 82.9844 29.0234 82.4688 28.7578C81.9531 28.4922 81.5625 28.1484 81.2969 27.7266C81.0312 27.3047 80.8984 26.8594 80.8984 26.3906H82.3516C82.3724 26.7865 82.487 27.1016 82.6953 27.3359C82.9036 27.5651 83.1589 27.7292 83.4609 27.8281C83.763 27.9219 84.0625 27.9688 84.3594 27.9688C84.7552 27.9688 85.0859 27.9167 85.3516 27.8125C85.6224 27.7083 85.8281 27.5651 85.9688 27.3828C86.1094 27.2005 86.1797 26.9922 86.1797 26.7578ZM93.0625 20.5469V21.6562H88.4922V20.5469H93.0625ZM90.0391 18.4922H91.4844V26.9062C91.4844 27.1927 91.5286 27.4089 91.6172 27.5547C91.7057 27.7005 91.8203 27.7969 91.9609 27.8438C92.1016 27.8906 92.2526 27.9141 92.4141 27.9141C92.5339 27.9141 92.6589 27.9036 92.7891 27.8828C92.9245 27.8568 93.026 27.8359 93.0938 27.8203L93.1016 29C92.987 29.0365 92.8359 29.0703 92.6484 29.1016C92.4661 29.138 92.2448 29.1562 91.9844 29.1562C91.6302 29.1562 91.3047 29.0859 91.0078 28.9453C90.7109 28.8047 90.474 28.5703 90.2969 28.2422C90.125 27.9089 90.0391 27.4609 90.0391 26.8984V18.4922ZM98.2656 29.1562C97.6771 29.1562 97.1432 29.0573 96.6641 28.8594C96.1901 28.6562 95.7812 28.3724 95.4375 28.0078C95.099 27.6432 94.8385 27.2109 94.6562 26.7109C94.474 26.2109 94.3828 25.6641 94.3828 25.0703V24.7422C94.3828 24.0547 94.4844 23.4427 94.6875 22.9062C94.8906 22.3646 95.1667 21.9062 95.5156 21.5312C95.8646 21.1562 96.2604 20.8724 96.7031 20.6797C97.1458 20.487 97.6042 20.3906 98.0781 20.3906C98.6823 20.3906 99.2031 20.4948 99.6406 20.7031C100.083 20.9115 100.445 21.2031 100.727 21.5781C101.008 21.9479 101.216 22.3854 101.352 22.8906C101.487 23.3906 101.555 23.9375 101.555 24.5312V25.1797H95.2422V24H100.109V23.8906C100.089 23.5156 100.01 23.151 99.875 22.7969C99.7448 22.4427 99.5365 22.151 99.25 21.9219C98.9635 21.6927 98.5729 21.5781 98.0781 21.5781C97.75 21.5781 97.4479 21.6484 97.1719 21.7891C96.8958 21.9245 96.6589 22.1276 96.4609 22.3984C96.263 22.6693 96.1094 23 96 23.3906C95.8906 23.7812 95.8359 24.2318 95.8359 24.7422V25.0703C95.8359 25.4714 95.8906 25.849 96 26.2031C96.1146 26.5521 96.2786 26.8594 96.4922 27.125C96.7109 27.3906 96.974 27.599 97.2812 27.75C97.5938 27.901 97.9479 27.9766 98.3438 27.9766C98.8542 27.9766 99.2865 27.8724 99.6406 27.6641C99.9948 27.4557 100.305 27.1771 100.57 26.8281L101.445 27.5234C101.263 27.7995 101.031 28.0625 100.75 28.3125C100.469 28.5625 100.122 28.7656 99.7109 28.9219C99.3047 29.0781 98.8229 29.1562 98.2656 29.1562ZM104.688 21.875V29H103.242V20.5469H104.648L104.688 21.875ZM107.328 20.5L107.32 21.8438C107.201 21.8177 107.086 21.8021 106.977 21.7969C106.872 21.7865 106.753 21.7812 106.617 21.7812C106.284 21.7812 105.99 21.8333 105.734 21.9375C105.479 22.0417 105.263 22.1875 105.086 22.375C104.909 22.5625 104.768 22.7865 104.664 23.0469C104.565 23.3021 104.5 23.5833 104.469 23.8906L104.062 24.125C104.062 23.6146 104.112 23.1354 104.211 22.6875C104.315 22.2396 104.474 21.8438 104.688 21.5C104.901 21.151 105.172 20.8802 105.5 20.6875C105.833 20.4896 106.229 20.3906 106.688 20.3906C106.792 20.3906 106.911 20.4036 107.047 20.4297C107.182 20.4505 107.276 20.474 107.328 20.5ZM113.586 26.7578C113.586 26.5495 113.539 26.3568 113.445 26.1797C113.357 25.9974 113.172 25.8333 112.891 25.6875C112.615 25.5365 112.198 25.4062 111.641 25.2969C111.172 25.1979 110.747 25.0807 110.367 24.9453C109.992 24.8099 109.672 24.6458 109.406 24.4531C109.146 24.2604 108.945 24.0339 108.805 23.7734C108.664 23.513 108.594 23.2083 108.594 22.8594C108.594 22.526 108.667 22.2109 108.812 21.9141C108.964 21.6172 109.174 21.3542 109.445 21.125C109.721 20.8958 110.052 20.7161 110.438 20.5859C110.823 20.4557 111.253 20.3906 111.727 20.3906C112.404 20.3906 112.982 20.5104 113.461 20.75C113.94 20.9896 114.307 21.3099 114.562 21.7109C114.818 22.1068 114.945 22.5469 114.945 23.0312H113.5C113.5 22.7969 113.43 22.5703 113.289 22.3516C113.154 22.1276 112.953 21.9427 112.688 21.7969C112.427 21.651 112.107 21.5781 111.727 21.5781C111.326 21.5781 111 21.6406 110.75 21.7656C110.505 21.8854 110.326 22.0391 110.211 22.2266C110.102 22.4141 110.047 22.612 110.047 22.8203C110.047 22.9766 110.073 23.1172 110.125 23.2422C110.182 23.362 110.281 23.474 110.422 23.5781C110.562 23.6771 110.76 23.7708 111.016 23.8594C111.271 23.9479 111.596 24.0365 111.992 24.125C112.685 24.2812 113.255 24.4688 113.703 24.6875C114.151 24.9062 114.484 25.1745 114.703 25.4922C114.922 25.8099 115.031 26.1953 115.031 26.6484C115.031 27.0182 114.953 27.3568 114.797 27.6641C114.646 27.9714 114.424 28.237 114.133 28.4609C113.846 28.6797 113.503 28.8516 113.102 28.9766C112.706 29.0964 112.26 29.1562 111.766 29.1562C111.021 29.1562 110.391 29.0234 109.875 28.7578C109.359 28.4922 108.969 28.1484 108.703 27.7266C108.438 27.3047 108.305 26.8594 108.305 26.3906H109.758C109.779 26.7865 109.893 27.1016 110.102 27.3359C110.31 27.5651 110.565 27.7292 110.867 27.8281C111.169 27.9219 111.469 27.9688 111.766 27.9688C112.161 27.9688 112.492 27.9167 112.758 27.8125C113.029 27.7083 113.234 27.5651 113.375 27.3828C113.516 27.2005 113.586 26.9922 113.586 26.7578Z" fill="#8F98AA"/>
<path d="M23 1H113V-1H23V1ZM135 23V25H137V23H135ZM113 47H23V49H113V47ZM1 25V23H-1V25H1ZM23 47C10.8497 47 1 37.1503 1 25H-1C-1 38.2548 9.74516 49 23 49V47ZM135 25C135 37.1503 125.15 47 113 47V49C126.255 49 137 38.2548 137 25H135ZM113 1C125.15 1 135 10.8497 135 23H137C137 9.74517 126.255 -1 113 -1V1ZM23 -1C9.74517 -1 -1 9.74517 -1 23H1C1 10.8497 10.8497 1 23 1V-1Z" fill="#8F98AA"/>
</svg>
