<svg width="114" height="48" viewBox="0 0 114 48" fill="none" xmlns="http://www.w3.org/2000/svg">
<path d="M21.8438 17.625L24.7969 23.3359L27.7578 17.625H29.4688L25.5469 24.75V29H24.0391V24.75L20.1172 17.625H21.8438ZM29.8125 24.8672V24.6875C29.8125 24.0781 29.901 23.513 30.0781 22.9922C30.2552 22.4661 30.5104 22.0104 30.8438 21.625C31.1771 21.2344 31.5807 20.9323 32.0547 20.7188C32.5286 20.5 33.0599 20.3906 33.6484 20.3906C34.2422 20.3906 34.776 20.5 35.25 20.7188C35.7292 20.9323 36.1354 21.2344 36.4688 21.625C36.8073 22.0104 37.0651 22.4661 37.2422 22.9922C37.4193 23.513 37.5078 24.0781 37.5078 24.6875V24.8672C37.5078 25.4766 37.4193 26.0417 37.2422 26.5625C37.0651 27.0833 36.8073 27.5391 36.4688 27.9297C36.1354 28.3151 35.7318 28.6172 35.2578 28.8359C34.7891 29.0495 34.2578 29.1562 33.6641 29.1562C33.0703 29.1562 32.5365 29.0495 32.0625 28.8359C31.5885 28.6172 31.1823 28.3151 30.8438 27.9297C30.5104 27.5391 30.2552 27.0833 30.0781 26.5625C29.901 26.0417 29.8125 25.4766 29.8125 24.8672ZM31.2578 24.6875V24.8672C31.2578 25.2891 31.3073 25.6875 31.4062 26.0625C31.5052 26.4323 31.6536 26.7604 31.8516 27.0469C32.0547 27.3333 32.3073 27.5599 32.6094 27.7266C32.9115 27.888 33.263 27.9688 33.6641 27.9688C34.0599 27.9688 34.4062 27.888 34.7031 27.7266C35.0052 27.5599 35.2552 27.3333 35.4531 27.0469C35.651 26.7604 35.7995 26.4323 35.8984 26.0625C36.0026 25.6875 36.0547 25.2891 36.0547 24.8672V24.6875C36.0547 24.2708 36.0026 23.8776 35.8984 23.5078C35.7995 23.1328 35.6484 22.8021 35.4453 22.5156C35.2474 22.224 34.9974 21.9948 34.6953 21.8281C34.3984 21.6615 34.0495 21.5781 33.6484 21.5781C33.2526 21.5781 32.9036 21.6615 32.6016 21.8281C32.3047 21.9948 32.0547 22.224 31.8516 22.5156C31.6536 22.8021 31.5052 23.1328 31.4062 23.5078C31.3073 23.8776 31.2578 24.2708 31.2578 24.6875ZM41.4609 27.5L43.6328 20.5469H44.5859L44.3984 21.9297L42.1875 29H41.2578L41.4609 27.5ZM40 20.5469L41.8516 27.5781L41.9844 29H41.0078L38.5547 20.5469H40ZM46.6641 27.5234L48.4297 20.5469H49.8672L47.4141 29H46.4453L46.6641 27.5234ZM44.7969 20.5469L46.9219 27.3828L47.1641 29H46.2422L43.9688 21.9141L43.7812 20.5469H44.7969ZM52.9219 20.5469V29H51.4688V20.5469H52.9219ZM51.3594 18.3047C51.3594 18.0703 51.4297 17.8724 51.5703 17.7109C51.7161 17.5495 51.9297 17.4688 52.2109 17.4688C52.487 17.4688 52.6979 17.5495 52.8438 17.7109C52.9948 17.8724 53.0703 18.0703 53.0703 18.3047C53.0703 18.5286 52.9948 18.7214 52.8438 18.8828C52.6979 19.0391 52.487 19.1172 52.2109 19.1172C51.9297 19.1172 51.7161 19.0391 51.5703 18.8828C51.4297 18.7214 51.3594 18.5286 51.3594 18.3047ZM60.1641 26.7578C60.1641 26.5495 60.1172 26.3568 60.0234 26.1797C59.9349 25.9974 59.75 25.8333 59.4688 25.6875C59.1927 25.5365 58.776 25.4062 58.2188 25.2969C57.75 25.1979 57.3255 25.0807 56.9453 24.9453C56.5703 24.8099 56.25 24.6458 55.9844 24.4531C55.724 24.2604 55.5234 24.0339 55.3828 23.7734C55.2422 23.513 55.1719 23.2083 55.1719 22.8594C55.1719 22.526 55.2448 22.2109 55.3906 21.9141C55.5417 21.6172 55.7526 21.3542 56.0234 21.125C56.2995 20.8958 56.6302 20.7161 57.0156 20.5859C57.401 20.4557 57.8307 20.3906 58.3047 20.3906C58.9818 20.3906 59.5599 20.5104 60.0391 20.75C60.5182 20.9896 60.8854 21.3099 61.1406 21.7109C61.3958 22.1068 61.5234 22.5469 61.5234 23.0312H60.0781C60.0781 22.7969 60.0078 22.5703 59.8672 22.3516C59.7318 22.1276 59.5312 21.9427 59.2656 21.7969C59.0052 21.651 58.6849 21.5781 58.3047 21.5781C57.9036 21.5781 57.5781 21.6406 57.3281 21.7656C57.0833 21.8854 56.9036 22.0391 56.7891 22.2266C56.6797 22.4141 56.625 22.612 56.625 22.8203C56.625 22.9766 56.651 23.1172 56.7031 23.2422C56.7604 23.362 56.8594 23.474 57 23.5781C57.1406 23.6771 57.3385 23.7708 57.5938 23.8594C57.849 23.9479 58.1745 24.0365 58.5703 24.125C59.263 24.2812 59.8333 24.4688 60.2812 24.6875C60.7292 24.9062 61.0625 25.1745 61.2812 25.4922C61.5 25.8099 61.6094 26.1953 61.6094 26.6484C61.6094 27.0182 61.5312 27.3568 61.375 27.6641C61.224 27.9714 61.0026 28.237 60.7109 28.4609C60.4245 28.6797 60.0807 28.8516 59.6797 28.9766C59.2839 29.0964 58.8385 29.1562 58.3438 29.1562C57.599 29.1562 56.9688 29.0234 56.4531 28.7578C55.9375 28.4922 55.5469 28.1484 55.2812 27.7266C55.0156 27.3047 54.8828 26.8594 54.8828 26.3906H56.3359C56.3568 26.7865 56.4714 27.1016 56.6797 27.3359C56.888 27.5651 57.1432 27.7292 57.4453 27.8281C57.7474 27.9219 58.0469 27.9688 58.3438 27.9688C58.7396 27.9688 59.0703 27.9167 59.3359 27.8125C59.6068 27.7083 59.8125 27.5651 59.9531 27.3828C60.0938 27.2005 60.1641 26.9922 60.1641 26.7578ZM71.75 23.6797H68.8672L68.8516 22.4688H71.4688C71.901 22.4688 72.2786 22.3958 72.6016 22.25C72.9245 22.1042 73.1745 21.8958 73.3516 21.625C73.5339 21.349 73.625 21.0208 73.625 20.6406C73.625 20.224 73.5443 19.8854 73.3828 19.625C73.2266 19.3594 72.9844 19.1667 72.6562 19.0469C72.3333 18.9219 71.9219 18.8594 71.4219 18.8594H69.2031V29H67.6953V17.625H71.4219C72.0052 17.625 72.526 17.6849 72.9844 17.8047C73.4427 17.9193 73.8307 18.1016 74.1484 18.3516C74.4714 18.5964 74.7161 18.9089 74.8828 19.2891C75.0495 19.6693 75.1328 20.125 75.1328 20.6562C75.1328 21.125 75.013 21.5495 74.7734 21.9297C74.5339 22.3047 74.2005 22.612 73.7734 22.8516C73.3516 23.0911 72.8568 23.2448 72.2891 23.3125L71.75 23.6797ZM71.6797 29H68.2734L69.125 27.7734H71.6797C72.1589 27.7734 72.5651 27.6901 72.8984 27.5234C73.237 27.3568 73.4948 27.1224 73.6719 26.8203C73.849 26.513 73.9375 26.151 73.9375 25.7344C73.9375 25.3125 73.862 24.9479 73.7109 24.6406C73.5599 24.3333 73.3229 24.0964 73 23.9297C72.6771 23.763 72.2604 23.6797 71.75 23.6797H69.6016L69.6172 22.4688H72.5547L72.875 22.9062C73.4219 22.9531 73.8854 23.1094 74.2656 23.375C74.6458 23.6354 74.9349 23.9688 75.1328 24.375C75.3359 24.7812 75.4375 25.2292 75.4375 25.7188C75.4375 26.4271 75.2812 27.026 74.9688 27.5156C74.6615 28 74.2266 28.3698 73.6641 28.625C73.1016 28.875 72.4401 29 71.6797 29ZM80.9531 29.1562C80.3646 29.1562 79.8307 29.0573 79.3516 28.8594C78.8776 28.6562 78.4688 28.3724 78.125 28.0078C77.7865 27.6432 77.526 27.2109 77.3438 26.7109C77.1615 26.2109 77.0703 25.6641 77.0703 25.0703V24.7422C77.0703 24.0547 77.1719 23.4427 77.375 22.9062C77.5781 22.3646 77.8542 21.9062 78.2031 21.5312C78.5521 21.1562 78.9479 20.8724 79.3906 20.6797C79.8333 20.487 80.2917 20.3906 80.7656 20.3906C81.3698 20.3906 81.8906 20.4948 82.3281 20.7031C82.7708 20.9115 83.1328 21.2031 83.4141 21.5781C83.6953 21.9479 83.9036 22.3854 84.0391 22.8906C84.1745 23.3906 84.2422 23.9375 84.2422 24.5312V25.1797H77.9297V24H82.7969V23.8906C82.776 23.5156 82.6979 23.151 82.5625 22.7969C82.4323 22.4427 82.224 22.151 81.9375 21.9219C81.651 21.6927 81.2604 21.5781 80.7656 21.5781C80.4375 21.5781 80.1354 21.6484 79.8594 21.7891C79.5833 21.9245 79.3464 22.1276 79.1484 22.3984C78.9505 22.6693 78.7969 23 78.6875 23.3906C78.5781 23.7812 78.5234 24.2318 78.5234 24.7422V25.0703C78.5234 25.4714 78.5781 25.849 78.6875 26.2031C78.8021 26.5521 78.9661 26.8594 79.1797 27.125C79.3984 27.3906 79.6615 27.599 79.9688 27.75C80.2812 27.901 80.6354 27.9766 81.0312 27.9766C81.5417 27.9766 81.974 27.8724 82.3281 27.6641C82.6823 27.4557 82.9922 27.1771 83.2578 26.8281L84.1328 27.5234C83.9505 27.7995 83.7188 28.0625 83.4375 28.3125C83.1562 28.5625 82.8099 28.7656 82.3984 28.9219C81.9922 29.0781 81.5104 29.1562 80.9531 29.1562ZM87.375 22.3516V29H85.9297V20.5469H87.2969L87.375 22.3516ZM87.0312 24.4531L86.4297 24.4297C86.4349 23.8516 86.5208 23.3177 86.6875 22.8281C86.8542 22.3333 87.0885 21.9036 87.3906 21.5391C87.6927 21.1745 88.0521 20.8932 88.4688 20.6953C88.8906 20.4922 89.3568 20.3906 89.8672 20.3906C90.2839 20.3906 90.6589 20.4479 90.9922 20.5625C91.3255 20.6719 91.6094 20.849 91.8438 21.0938C92.0833 21.3385 92.2656 21.6562 92.3906 22.0469C92.5156 22.4323 92.5781 22.9036 92.5781 23.4609V29H91.125V23.4453C91.125 23.0026 91.0599 22.6484 90.9297 22.3828C90.7995 22.112 90.6094 21.9167 90.3594 21.7969C90.1094 21.6719 89.8021 21.6094 89.4375 21.6094C89.0781 21.6094 88.75 21.6849 88.4531 21.8359C88.1615 21.987 87.9089 22.1953 87.6953 22.4609C87.487 22.7266 87.3229 23.0312 87.2031 23.375C87.0885 23.7135 87.0312 24.0729 87.0312 24.4531Z" fill="#8F98AA"/>
<path d="M23 1H91V-1H23V1ZM113 23V25H115V23H113ZM91 47H23V49H91V47ZM1 25V23H-1V25H1ZM23 47C10.8497 47 1 37.1503 1 25H-1C-1 38.2548 9.74517 49 23 49V47ZM113 25C113 37.1503 103.15 47 91 47V49C104.255 49 115 38.2548 115 25H113ZM91 1C103.15 1 113 10.8497 113 23H115C115 9.74517 104.255 -1 91 -1V1ZM23 -1C9.74517 -1 -1 9.74517 -1 23H1C1 10.8497 10.8497 1 23 1V-1Z" fill="#8F98AA"/>
</svg>
