<svg width="101" height="48" viewBox="0 0 101 48" fill="none" xmlns="http://www.w3.org/2000/svg">
<path d="M40 20H34.388L35.511 16.633C35.713 16.025 35.611 15.351 35.236 14.831C34.861 14.311 34.253 14 33.612 14H32C31.703 14 31.422 14.132 31.231 14.36L26.531 20H24C22.897 20 22 20.897 22 22V31C22 32.103 22.897 33 24 33H37.307C37.7139 32.9986 38.1108 32.8738 38.4452 32.6421C38.7797 32.4103 39.0359 32.0825 39.18 31.702L41.937 24.351C41.9789 24.2387 42.0002 24.1198 42 24V22C42 20.897 41.103 20 40 20ZM24 22H26V31H24V22ZM40 23.819L37.307 31H28V21.362L32.468 16H33.614L32.052 20.683C32.0013 20.8333 31.9871 20.9936 32.0107 21.1504C32.0343 21.3073 32.095 21.4563 32.1877 21.585C32.2803 21.7138 32.4024 21.8186 32.5436 21.8908C32.6849 21.9629 32.8414 22.0004 33 22H40V23.819Z" fill="#333333"/>
<path d="M61.791 25.7148V27.1992H51.5176V26.1348L57.8848 16.2812H59.3594L57.7773 19.1328L53.5684 25.7148H61.791ZM59.8086 16.2812V30.5H58.002V16.2812H59.8086ZM72.3574 22.2578V24.4258C72.3574 25.5911 72.2533 26.5742 72.0449 27.375C71.8366 28.1758 71.5371 28.8203 71.1465 29.3086C70.7559 29.7969 70.2839 30.1517 69.7305 30.373C69.1836 30.5879 68.5651 30.6953 67.875 30.6953C67.3281 30.6953 66.8236 30.627 66.3613 30.4902C65.8991 30.3535 65.4824 30.1354 65.1113 29.8359C64.7467 29.5299 64.4342 29.1328 64.1738 28.6445C63.9134 28.1562 63.7148 27.5638 63.5781 26.8672C63.4414 26.1706 63.373 25.3568 63.373 24.4258V22.2578C63.373 21.0924 63.4772 20.1159 63.6855 19.3281C63.9004 18.5404 64.2031 17.9089 64.5938 17.4336C64.9844 16.9518 65.4531 16.6068 66 16.3984C66.5534 16.1901 67.1719 16.0859 67.8555 16.0859C68.4089 16.0859 68.9167 16.1543 69.3789 16.291C69.8477 16.4212 70.2643 16.6328 70.6289 16.9258C70.9935 17.2122 71.3027 17.5964 71.5566 18.0781C71.8171 18.5534 72.0156 19.1361 72.1523 19.8262C72.2891 20.5163 72.3574 21.3268 72.3574 22.2578ZM70.541 24.7188V21.9551C70.541 21.3171 70.502 20.7572 70.4238 20.2754C70.3522 19.7871 70.2448 19.3704 70.1016 19.0254C69.9583 18.6803 69.776 18.4004 69.5547 18.1855C69.3398 17.9707 69.0892 17.8145 68.8027 17.7168C68.5228 17.6126 68.207 17.5605 67.8555 17.5605C67.4258 17.5605 67.0449 17.6419 66.7129 17.8047C66.3809 17.9609 66.1009 18.2116 65.873 18.5566C65.6517 18.9017 65.4824 19.3542 65.3652 19.9141C65.248 20.474 65.1895 21.1543 65.1895 21.9551V24.7188C65.1895 25.3568 65.2253 25.9199 65.2969 26.4082C65.375 26.8965 65.4889 27.3197 65.6387 27.6777C65.7884 28.0293 65.9707 28.319 66.1855 28.5469C66.4004 28.7747 66.6478 28.944 66.9277 29.0547C67.2142 29.1589 67.5299 29.2109 67.875 29.2109C68.3177 29.2109 68.7051 29.1263 69.0371 28.957C69.3691 28.7878 69.6458 28.5241 69.8672 28.166C70.0951 27.8014 70.2643 27.3359 70.375 26.7695C70.4857 26.1966 70.541 25.513 70.541 24.7188ZM77.3184 22.502H78.6074C79.2389 22.502 79.7598 22.3978 80.1699 22.1895C80.5866 21.9746 80.8958 21.6849 81.0977 21.3203C81.306 20.9492 81.4102 20.5326 81.4102 20.0703C81.4102 19.5234 81.319 19.0645 81.1367 18.6934C80.9544 18.3223 80.681 18.0423 80.3164 17.8535C79.9518 17.6647 79.4896 17.5703 78.9297 17.5703C78.4219 17.5703 77.9727 17.6712 77.582 17.873C77.1979 18.0684 76.8952 18.3483 76.6738 18.7129C76.459 19.0775 76.3516 19.5072 76.3516 20.002H74.5449C74.5449 19.2793 74.7272 18.6217 75.0918 18.0293C75.4564 17.4368 75.9674 16.9648 76.625 16.6133C77.2891 16.2617 78.0573 16.0859 78.9297 16.0859C79.7891 16.0859 80.541 16.2389 81.1855 16.5449C81.8301 16.8444 82.3314 17.2936 82.6895 17.8926C83.0475 18.485 83.2266 19.224 83.2266 20.1094C83.2266 20.4674 83.1419 20.8516 82.9727 21.2617C82.8099 21.6654 82.5527 22.043 82.2012 22.3945C81.8561 22.7461 81.4069 23.0358 80.8535 23.2637C80.3001 23.485 79.6361 23.5957 78.8613 23.5957H77.3184V22.502ZM77.3184 23.9863V22.9023H78.8613C79.7663 22.9023 80.515 23.0098 81.1074 23.2246C81.6999 23.4395 82.1654 23.7259 82.5039 24.084C82.849 24.4421 83.0898 24.8359 83.2266 25.2656C83.3698 25.6888 83.4414 26.112 83.4414 26.5352C83.4414 27.1992 83.3275 27.7884 83.0996 28.3027C82.8783 28.8171 82.5625 29.2533 82.1523 29.6113C81.7487 29.9694 81.2734 30.2396 80.7266 30.4219C80.1797 30.6042 79.584 30.6953 78.9395 30.6953C78.321 30.6953 77.7383 30.6074 77.1914 30.4316C76.651 30.2559 76.1725 30.002 75.7559 29.6699C75.3392 29.3314 75.0137 28.918 74.7793 28.4297C74.5449 27.9349 74.4277 27.3717 74.4277 26.7402H76.2344C76.2344 27.235 76.3418 27.668 76.5566 28.0391C76.778 28.4102 77.0905 28.6999 77.4941 28.9082C77.9043 29.11 78.3861 29.2109 78.9395 29.2109C79.4928 29.2109 79.9681 29.1165 80.3652 28.9277C80.7689 28.7324 81.0781 28.4395 81.293 28.0488C81.5143 27.6582 81.625 27.1667 81.625 26.5742C81.625 25.9818 81.5013 25.4967 81.2539 25.1191C81.0065 24.735 80.6549 24.4518 80.1992 24.2695C79.75 24.0807 79.2194 23.9863 78.6074 23.9863H77.3184Z" fill="#333333"/>
<path d="M24 1H77V-1H24V1ZM77 47H24V49H77V47ZM24 47C11.2975 47 1 36.7025 1 24H-1C-1 37.8071 10.1929 49 24 49V47ZM100 24C100 36.7025 89.7025 47 77 47V49C90.8071 49 102 37.8071 102 24H100ZM77 1C89.7026 1 100 11.2975 100 24H102C102 10.1929 90.8071 -1 77 -1V1ZM24 -1C10.1929 -1 -1 10.1929 -1 24H1C1 11.2975 11.2975 1 24 1V-1Z" fill="#333D58"/>
</svg>
